<svg width="635" height="411" viewBox="0 0 635 411" fill="none" xmlns="http://www.w3.org/2000/svg">
<g opacity="0.6">
<path d="M272.919 365.796C272.919 365.796 231.265 149.457 155.179 157.438C79.092 165.419 224.953 299.243 234.478 362.418L272.919 365.796Z" fill="#54A233"/>
</g>
<path d="M215.823 304.708C215.823 304.708 108.271 132.93 53.2839 164.787C-1.69917 196.644 156.041 263.42 185.442 314.452L215.819 304.712L215.823 304.708Z" fill="#94C358"/>
<path d="M198.877 310.309C179.212 274.696 145.766 243.069 121.175 222.806C94.5118 200.839 72.2331 187.137 72.0109 187.001L72.8583 185.615C73.0805 185.751 95.4572 199.514 122.207 221.551C146.907 241.905 180.508 273.687 200.297 309.521L198.873 310.309H198.877Z" fill="#F4F4F4"/>
<path d="M46.5269 338.715C74.4177 344.73 69.51 386.956 101.386 379.1C133.261 371.224 130.636 369.194 145.857 382.987C145.857 382.987 151.732 396.327 164.376 398.535C214.263 407.25 283.009 333.438 231.16 292.828C227.416 289.894 221.947 288.772 215.891 287.826C183.032 282.727 172.689 297.811 147.024 259.122C121.348 220.421 85.8339 275.958 63.7887 274.022C41.7435 272.086 22.3461 265.495 5.01655 288.847C-12.3168 312.222 18.6361 332.719 46.5269 338.715Z" fill="#54A233"/>
<g opacity="0.5">
<path d="M214.915 346.504L215.973 344.945C215.288 344.482 145.826 298.738 1.01658 295.476L0.960083 297.352C145.228 300.602 214.233 346.041 214.915 346.501V346.504Z" fill="#E3FFD2"/>
<path d="M125.149 290.723C144.358 273.536 147.804 259.902 147.94 259.329L146.113 258.904C146.079 259.039 142.617 272.58 123.898 289.329L125.149 290.723Z" fill="#E3FFD2"/>
<path d="M121.717 310.975C127.141 301.525 126.719 287.909 120.493 271.608C115.83 259.397 109.487 249.826 109.423 249.732L107.857 250.779C108.105 251.152 132.561 288.32 120.086 310.052L121.717 310.975Z" fill="#FF4929"/>
<path d="M83.6192 307.743C85.9055 305.841 87.1409 304.606 87.1974 304.55L85.8603 303.239C85.6004 303.502 59.5326 329.506 21.3028 328.388L21.235 330.263C52.041 331.163 75.1032 314.832 83.6155 307.747L83.6192 307.743Z" fill="#E3FFD2"/>
<path d="M64.5684 351.163C73.3556 341.435 75.9055 331.713 76.4969 325.276C77.1409 318.267 75.7021 313.612 75.6419 313.416L73.849 313.992C73.9055 314.173 79.2652 332.101 63.1786 349.917L64.5722 351.167L64.5684 351.163Z" fill="#E3FFD2"/>
</g>
<path d="M498.58 119.841C503.616 125.227 506.825 125.231 508.938 123.257C511.051 121.284 511.262 118.082 506.226 112.696C497.055 102.885 488.795 101.713 488.795 101.713C488.795 101.713 489.273 109.886 498.58 119.841Z" fill="#54A233"/>
<path d="M488.26 157.276C491.281 164.003 494.316 165.043 496.953 163.86C499.589 162.677 500.829 159.713 497.808 152.99C492.305 140.738 484.87 136.96 484.87 136.96C484.87 136.96 482.678 144.847 488.26 157.28V157.276Z" fill="#54A233"/>
<path d="M452.768 285.804L454.136 286.083C454.177 285.872 458.633 264.678 474.576 236.421C489.288 210.35 517.074 172.764 565.891 141.762L565.141 140.583C516.057 171.758 488.121 209.563 473.33 235.792C457.292 264.226 452.81 285.593 452.765 285.808L452.768 285.804Z" fill="#54A233"/>
<path d="M513.631 182.73L514.972 182.342C500.9 133.649 531.424 88.6473 531.733 88.1991L530.584 87.4044C530.271 87.8601 499.371 133.389 513.631 182.726V182.73Z" fill="#54A233"/>
<path d="M540.219 166.994C553.812 171.024 566.098 167.265 566.241 167.22L565.823 165.89C565.665 165.939 549.925 170.738 534.637 163.348L534.03 164.606C536.098 165.604 538.177 166.391 540.222 166.998L540.219 166.994Z" fill="#54A233"/>
<path d="M568.998 134.568C560.026 138.854 558.365 142.244 559.612 144.851C560.859 147.457 564.539 148.297 573.51 144.011C589.857 136.203 595.499 127.706 595.499 127.706C595.499 127.706 585.582 126.644 568.998 134.568Z" fill="#54A233"/>
<path d="M563.936 161.83C554.087 163.212 551.484 165.943 551.887 168.806C552.29 171.668 555.544 173.578 565.39 172.195C583.33 169.679 591.273 163.28 591.273 163.28C591.273 163.28 582.136 159.276 563.936 161.83Z" fill="#54A233"/>
<path d="M532.855 141.623C529.202 148.03 530.151 151.096 532.659 152.527C535.172 153.958 538.29 153.216 541.944 146.809C548.599 135.141 547.27 126.907 547.27 126.907C547.27 126.907 539.605 129.785 532.851 141.623H532.855Z" fill="#54A233"/>
<path d="M529.371 81.152C524.399 89.7659 524.949 93.4985 527.454 94.9411C529.959 96.3874 533.465 94.9938 538.437 86.3836C547.492 70.6925 547.337 60.4966 547.337 60.4966C547.337 60.4966 538.561 65.2349 529.371 81.152Z" fill="#54A233"/>
<path d="M443.97 326.335C443.97 326.335 516.738 178.662 556.064 199.913C595.394 221.163 485.379 288.064 465.559 331.725L443.97 326.339V326.335Z" fill="#54A233"/>
<path d="M465.559 308.617C465.559 308.617 564.998 182.689 605.526 212.497C646.053 242.305 516.162 281.273 488.629 318.9L465.559 308.617Z" fill="#94C358"/>
<path d="M478.411 314.486C496.953 288.154 526 266.143 547.1 252.312C569.974 237.322 588.69 228.455 588.874 228.369L588.324 227.205C588.136 227.291 569.341 236.195 546.392 251.239C525.198 265.13 496.019 287.25 477.36 313.747L478.411 314.489V314.486Z" fill="#F4F4F4"/>
<path d="M596.233 349.924C574.015 353.702 576.184 387.175 551.386 379.875C530.41 373.691 528.716 371.653 521.1 377.435C518.49 379.416 516.211 381.793 514.256 384.425C511.917 387.578 507.461 392.18 500.972 393.024C461.314 398.173 410.113 337.578 452.595 307.344C455.665 305.16 460.019 304.463 464.828 303.928C490.923 301.043 498.467 313.299 520.245 283.672C542.03 254.037 567.781 299.069 585.228 298.305C602.674 297.54 618.222 293.013 630.942 312.034C643.661 331.069 618.448 346.162 596.23 349.928L596.233 349.924Z" fill="#54A233"/>
<path d="M463.243 350.245L462.471 348.979C463.028 348.64 519.597 314.964 633.831 317.401L633.8 318.885C519.996 316.455 463.797 349.909 463.243 350.245Z" fill="#F4F4F4"/>
<path d="M536.211 309.352C521.767 295.133 519.597 284.259 519.514 283.804L520.972 283.529C520.991 283.638 523.175 294.437 537.254 308.293L536.215 309.348L536.211 309.352Z" fill="#F4F4F4"/>
<path d="M538.105 325.446C534.211 317.804 535.092 307.081 540.651 294.44C544.817 284.971 550.2 277.642 550.252 277.57L551.442 278.452C551.232 278.738 530.467 307.205 539.424 324.776L538.102 325.446H538.105Z" fill="#F4F4F4"/>
<path d="M568.252 324.214C566.527 322.636 565.604 321.616 565.563 321.57L566.667 320.583C566.859 320.798 586.354 342.211 616.524 342.651L616.501 344.132C592.192 343.777 574.678 330.098 568.252 324.214Z" fill="#F4F4F4"/>
<path d="M581.518 359.118C574.987 351.141 573.367 343.386 573.16 338.29C572.934 332.738 574.252 329.115 574.309 328.964L575.699 329.48C575.646 329.619 570.704 343.574 582.663 358.18L581.514 359.118H581.518Z" fill="#F4F4F4"/>
<path d="M133.077 182.922C133.623 183.246 142.915 187.401 144.911 202.715C146.907 218.03 134.293 204.218 134.293 204.218L133.077 182.922Z" fill="#FFAD97"/>
<path d="M118.109 388.181C118.109 388.181 118.241 393.506 121.845 395.009C125.45 396.512 135.89 397.868 131.988 401.292C129.751 403.258 119.197 401.988 116.222 401.988C113.243 401.988 110.448 403.288 108.233 401.292C105.796 399.1 108.233 388.181 108.233 388.181C108.233 388.181 110.802 389.521 113.114 389.461C116.444 389.375 118.109 388.181 118.109 388.181Z" fill="#002B34"/>
<path d="M76.7228 388.181C76.7228 388.181 76.8547 393.506 80.4592 395.009C84.0637 396.512 94.5044 397.868 90.6023 401.292C88.365 403.258 77.8113 401.988 74.8358 401.988C71.8565 401.988 69.0618 403.288 66.8471 401.292C64.4102 399.1 66.8471 388.181 66.8471 388.181C66.8471 388.181 69.4159 389.521 71.7285 389.461C75.058 389.375 76.7228 388.181 76.7228 388.181Z" fill="#002B34"/>
<path d="M144.892 242.184C144.892 242.184 145.559 264.478 138.444 307.243C133.307 338.116 127.243 369.228 124.267 384.143C123.201 389.476 118.715 393.378 113.397 393.593L110.538 393.706C104.787 393.936 100.12 388.998 100.542 383.126L107.762 282.222L109.54 249.009L144.889 242.184H144.892Z" fill="#FF8321"/>
<path d="M79.8076 261.8C80.1353 264.512 95.4761 264.184 114.263 261.807C133.047 259.431 147.668 255.359 147.341 252.647C147.013 249.936 131.86 249.604 113.073 251.981C94.2897 254.357 79.4799 259.088 79.8076 261.8Z" fill="#002B34"/>
<path d="M123.326 258.105L83.2238 386.93C81.5439 392.324 76.6889 396.019 71.1597 396.113L68.7492 396.154C63.058 396.252 58.7077 390.99 59.7435 385.261L81.6795 264.214C81.9997 262.775 83.0618 261.63 84.4479 261.231C91.9696 259.062 124.064 252.779 123.326 258.105Z" fill="#FF8321"/>
<path d="M86.0787 187.63C86.0787 187.63 91.4158 172.617 110.422 173.299C129.431 173.981 143.781 198.96 147.337 252.644C147.337 252.644 116.211 245.819 79.7473 261.74C79.7473 261.74 77.7247 209.506 86.075 187.627L86.0787 187.63Z" fill="#015700"/>
<path d="M72.7303 186.726L86.1955 195.344C86.1955 195.344 120.809 198.806 130 197.141C139.19 195.472 140.617 188.719 140.617 188.719C140.617 188.719 131.875 176.73 115.243 173.751C113.68 173.468 112.105 173.423 110.425 173.303C107.604 173.103 104.783 173.19 102.018 173.487C85.5853 175.261 72.7341 186.726 72.7341 186.726H72.7303Z" fill="#015700"/>
<path d="M105.405 315.687L114.03 289.469C115.97 283.574 119.958 278.651 125.261 275.615L124.926 275.032C119.48 278.154 115.382 283.205 113.39 289.261L104.764 315.48L105.405 315.691V315.687Z" fill="#002B34"/>
<path d="M123.457 169.958C123.563 169.932 126.011 169.337 126.742 167.581C127.126 166.655 126.953 165.585 126.222 164.399C125.898 163.871 125.597 163.393 125.326 162.956C123.424 159.92 122.779 158.896 123.28 156.523L123.066 156.478C122.55 158.941 123.254 160.067 125.141 163.073C125.416 163.51 125.714 163.984 126.037 164.512C126.727 165.63 126.896 166.636 126.542 167.491C125.857 169.141 123.435 169.736 123.412 169.74L123.465 169.954L123.457 169.958Z" fill="#002B34"/>
<path d="M123.171 156.5C123.171 156.5 122.327 160.312 124.855 164.305C127.382 168.293 124.632 171.212 121.209 169.676C117.789 168.143 116.482 172.504 112.109 170.094C107.736 167.683 123.171 156.504 123.171 156.504V156.5Z" fill="#002B34"/>
<path d="M102.956 173.355C104.847 173.152 106.489 171.966 107.239 170.222L109.593 164.753L110.275 163.163L114.293 153.826L113.597 163.502L113.178 169.31L113.058 170.967C112.96 172.32 113.905 173.514 115.239 173.755H115.261C115.977 174.922 116.964 177.288 114.015 178.226C110.546 179.329 104.937 176.598 102.922 173.363C102.934 173.363 102.941 173.363 102.952 173.363L102.956 173.355Z" fill="#FFAD97"/>
<path d="M109.585 164.591C109.585 164.644 109.589 164.696 109.597 164.753C109.827 167.871 113.164 169.329 113.164 169.329L113.182 169.31L113.601 163.502C112.58 163.129 111.13 162.745 110.279 163.163C109.834 163.382 109.555 163.819 109.585 164.591Z" fill="#002B34"/>
<path d="M114.738 166.591C119.757 166.591 123.826 161.569 123.826 155.374C123.826 149.179 119.757 144.158 114.738 144.158C109.718 144.158 105.649 149.179 105.649 155.374C105.649 161.569 109.718 166.591 114.738 166.591Z" fill="#FFAD97"/>
<path d="M106.862 157.065C107.891 158.048 109.333 158.15 110.079 157.291C110.825 156.433 110.595 154.941 109.567 153.954C108.538 152.971 107.096 152.87 106.35 153.728C105.604 154.587 105.834 156.082 106.862 157.065Z" fill="#FFAD97"/>
<path d="M119.631 162.632C119.631 162.632 116.527 162.704 113.42 161.612C113.42 161.612 113.164 164.674 116.523 164.877C118.478 164.998 119.627 162.632 119.627 162.632H119.631Z" fill="#E9633E"/>
<path d="M119.631 162.632C119.631 162.632 118.881 163.258 117.126 163.25C115.374 163.242 113.42 161.615 113.42 161.615C113.42 161.615 117.16 162.644 119.631 162.636V162.632Z" fill="white"/>
<path d="M115.616 155.484C115.676 155.468 115.729 155.423 115.755 155.359C115.796 155.254 115.747 155.133 115.642 155.092C115.578 155.065 114.188 154.35 112.964 155.687C112.889 155.77 112.889 155.902 112.972 155.981C113.054 156.06 113.167 156.037 113.265 155.973C114.215 155.337 115.435 155.453 115.488 155.476C115.529 155.495 115.578 155.495 115.619 155.484H115.616Z" fill="#002B34"/>
<path d="M113.981 157.755C113.966 158.248 114.241 158.659 114.602 158.67C114.96 158.681 115.261 158.29 115.28 157.796C115.295 157.303 115.02 156.892 114.663 156.881C114.305 156.87 114.003 157.261 113.985 157.755H113.981Z" fill="#002B34"/>
<path d="M122.998 156.561C123.062 156.568 123.126 156.549 123.171 156.5C123.25 156.418 123.25 156.29 123.171 156.207C123.122 156.161 122.109 154.968 120.471 155.74C120.369 155.789 120.32 155.909 120.365 156.015C120.41 156.12 120.527 156.143 120.64 156.12C121.762 155.89 122.843 156.467 122.885 156.508C122.919 156.542 122.96 156.561 123.002 156.564L122.998 156.561Z" fill="#002B34"/>
<path d="M120.618 158.041C120.414 158.489 120.516 158.975 120.844 159.122C121.171 159.269 121.601 159.024 121.8 158.572C122.004 158.124 121.902 157.638 121.574 157.491C121.247 157.344 120.817 157.589 120.618 158.041Z" fill="#002B34"/>
<path d="M118.595 146.192C118.595 146.192 118.399 150.082 113.54 150.745C108.682 151.408 105.329 153.465 105.981 156.964C106.633 160.463 114.467 167.728 108.708 170.538C102.953 173.352 104.177 168.105 97.9357 169.322C91.6947 170.538 90.5685 162.203 94.8661 157.367C99.1636 152.531 97.4235 139.732 113.537 140.297C129.653 140.866 123.747 153.721 123.747 153.721C123.747 153.721 118.584 150.482 118.591 146.184L118.595 146.192Z" fill="#002B34"/>
<path d="M107.054 171.265C108.267 170.775 109.013 170.045 109.269 169.099C109.977 166.489 106.938 162.546 104.252 159.069C103.548 158.154 102.877 157.288 102.29 156.463C100.647 154.173 100.508 151.548 101.913 149.446C103.454 147.137 106.388 146.165 109.57 146.9C112.742 147.634 114.922 146.971 116.196 146.286C117.578 145.54 118.196 144.632 118.222 144.595L118.113 144.523C118.113 144.523 117.48 145.446 116.124 146.177C114.873 146.851 112.727 147.502 109.6 146.775C106.365 146.026 103.378 147.02 101.808 149.374C100.395 151.495 100.538 154.241 102.188 156.542C102.779 157.371 103.45 158.233 104.154 159.152C106.817 162.606 109.838 166.519 109.148 169.069C108.9 169.988 108.199 170.67 107.009 171.148L107.058 171.269L107.054 171.265Z" fill="white"/>
<path d="M122.365 163.913C121.883 163.913 121.412 163.777 120.975 163.502C119.02 162.286 118.282 158.613 119.333 155.325C119.977 153.306 121.179 151.8 122.542 151.299C123.359 151.001 124.177 151.069 124.904 151.532C126.858 152.741 127.597 156.41 126.546 159.706C125.902 161.728 124.7 163.239 123.337 163.74C123.013 163.856 122.689 163.917 122.365 163.917V163.913ZM119.717 155.453C118.719 158.576 119.382 162.037 121.19 163.163C121.8 163.544 122.497 163.6 123.194 163.355C124.444 162.892 125.552 161.48 126.158 159.578C127.156 156.451 126.497 152.99 124.689 151.868C124.075 151.487 123.386 151.423 122.681 151.676C121.431 152.139 120.324 153.548 119.717 155.453Z" fill="#83BB26"/>
<g opacity="0.3">
<path d="M108.813 153.182C108.083 156.384 109.25 159.822 111.416 160.862C113.582 161.902 115.932 160.146 116.659 156.945C117.39 153.743 116.222 150.305 114.056 149.265C111.891 148.225 109.54 149.981 108.813 153.182Z" fill="white"/>
</g>
<g opacity="0.3">
<path d="M119.243 155.593C118.512 158.809 119.484 162.297 121.416 163.386C123.348 164.47 125.506 162.745 126.237 159.529C126.968 156.312 125.996 152.824 124.064 151.736C122.132 150.651 119.973 152.376 119.243 155.593Z" fill="white"/>
</g>
<path d="M112.949 161.265C112.459 161.265 111.973 161.156 111.499 160.926C109.107 159.811 107.811 156.116 108.61 152.689C109.069 150.7 110.132 149.171 111.529 148.493C112.501 148.026 113.521 148.018 114.482 148.47C116.87 149.593 118.165 153.288 117.371 156.708C116.907 158.7 115.842 160.233 114.444 160.911C113.955 161.145 113.45 161.269 112.949 161.269V161.265ZM113.036 148.538C112.587 148.538 112.143 148.644 111.71 148.854C110.444 149.476 109.431 150.941 109.005 152.783C108.252 156.026 109.446 159.517 111.672 160.564C112.516 160.949 113.416 160.945 114.267 160.546C115.536 159.932 116.55 158.459 116.979 156.61C117.729 153.367 116.535 149.875 114.312 148.828C113.894 148.636 113.465 148.534 113.036 148.534V148.538Z" fill="#83BB26"/>
<path d="M119.672 156.79C119.585 156.79 119.503 156.76 119.431 156.704C119.39 156.67 118.41 155.902 116.723 156.226C116.523 156.256 116.32 156.131 116.278 155.928C116.237 155.725 116.373 155.525 116.576 155.491C118.617 155.065 119.86 156.082 119.913 156.124C120.071 156.259 120.094 156.497 119.958 156.655C119.887 156.749 119.778 156.794 119.668 156.794L119.672 156.79Z" fill="#83BB26"/>
<path d="M72.5382 187.024C72.0711 188.38 75.5928 190.919 80.4026 192.693C85.2124 194.467 89.4949 194.806 89.9619 193.45C90.4289 192.094 86.9073 189.555 82.0975 187.781C77.2877 186.007 73.0052 185.668 72.5382 187.024Z" fill="#002B34"/>
<path d="M105.567 233.928L105.728 224.086C105.751 222.742 104.715 221.615 103.374 221.517C96.5533 221.028 91.7774 218.915 89.1635 215.212C85.5326 210.075 85.913 202.097 86.9262 196.564C87.4422 193.732 86.5081 191.838 83.0882 190.022C83.0882 190.022 80.1466 188.403 76.5157 187.785C75.0618 187.536 73.6192 188.12 73.2426 189.548C72.655 191.781 71.898 195.25 71.5326 199.337C70.6701 209.039 72.542 217.48 76.945 223.747C82.3462 231.438 91.058 235.691 102.855 236.414C104.305 236.504 105.54 235.374 105.563 233.924L105.567 233.928Z" fill="#FFAD97"/>
<g opacity="0.5">
<path d="M77.5892 219.597C76.3727 218.086 76.2559 216.158 77.3293 215.291C78.4028 214.429 80.2634 214.952 81.48 216.463C82.6966 217.973 82.8133 219.902 81.7399 220.768C81.3896 221.05 80.9565 221.182 80.4857 221.182C79.5177 221.182 78.4066 220.613 77.5892 219.597ZM77.7437 215.807C76.9678 216.433 77.1335 217.977 78.1015 219.182C79.0732 220.387 80.5497 220.877 81.3218 220.252C82.0977 219.627 81.932 218.082 80.964 216.877C80.2823 216.03 79.3482 215.532 78.5836 215.532C78.2634 215.532 77.9734 215.619 77.7437 215.804V215.807Z" fill="#F47C53"/>
</g>
<path d="M94.9111 258.862C94.9111 258.862 132.403 251.702 144.557 255.081L138.727 263.717L117.058 264.945L94.9111 258.866V258.862Z" fill="#FF8321"/>
<path d="M107.706 202.742L110.425 230.911C110.531 232.015 111.408 232.885 112.512 232.979L133.487 234.809C133.702 234.828 133.917 234.817 134.124 234.775L138.286 233.966C138.727 233.879 139.13 233.668 139.454 233.356L149.171 223.879C149.665 223.397 149.917 222.719 149.857 222.033L147.936 200.082C147.781 198.301 145.744 197.374 144.297 198.421L135.875 204.534C135.646 204.7 135.386 204.824 135.111 204.896L130.904 206.007C130.497 206.116 130.064 206.109 129.661 205.988L110.648 200.316C109.084 199.849 107.548 201.114 107.702 202.738L107.706 202.742Z" fill="#83BB26"/>
<path d="M130.286 206.177L135.533 204.79L138.968 233.838C138.968 233.838 137.68 235.841 133.815 234.84L130.286 206.177Z" fill="#002B34"/>
<path d="M100.87 220.896C100.87 220.896 103.265 213.646 107.367 211.871C111.469 210.097 118.052 210.93 115.743 212.572C113.435 214.214 109.905 215.495 109.905 215.495C109.905 215.495 117.574 213.114 117.356 215.148C117.137 217.182 110.448 219.19 110.448 219.19C110.448 219.19 119.8 217.081 118.971 218.937C118.143 220.794 111.024 222.342 111.024 222.342C111.024 222.342 119.804 220.73 118.791 222.862C117.777 224.994 111.525 224.146 111.307 226.184C111.088 228.218 109.525 236.226 103.796 236.308L100.877 220.904L100.87 220.896Z" fill="#FFAD97"/>
<path d="M107.167 217.178C107.725 216.007 109.906 215.661 109.928 215.657L109.879 215.329C109.781 215.344 107.503 215.71 106.874 217.035L107.171 217.178H107.167Z" fill="#F47C53"/>
<path d="M107.133 221.212C108.297 219.657 110.444 219.352 110.467 219.348L110.421 219.02C110.327 219.032 108.113 219.348 106.87 221.013L107.133 221.209V221.212Z" fill="#F47C53"/>
<path d="M107.939 224.207C108.425 222.915 111.017 222.504 111.043 222.501L110.994 222.173C110.881 222.192 108.184 222.617 107.631 224.09L107.939 224.207Z" fill="#F47C53"/>
<path d="M112.049 200.734C112.049 200.734 113.676 199.6 117.435 200.35C121.194 201.103 126.776 202.764 129.032 203.035C131.288 203.303 132.147 204.323 132.147 204.323C132.147 204.323 131.48 202.591 134.147 201.657C136.817 200.727 141.702 197.939 143.344 199.118L135.533 204.791L130.286 206.177L112.049 200.738V200.734Z" fill="#E4ECFF"/>
<path d="M131.932 204.361L132.357 204.293C132.339 204.158 132.071 202.952 128.828 202.293C128.12 202.15 127.145 201.887 126.019 201.581C122.135 200.531 116.263 198.949 113.356 200.188L113.525 200.583C116.293 199.401 122.079 200.96 125.906 201.996C127.043 202.301 128.022 202.568 128.742 202.715C131.687 203.314 131.932 204.354 131.936 204.361H131.932Z" fill="#E4ECFF"/>
<path d="M152.399 215.303C152.399 215.303 152.934 219.514 149.375 219.913C144.836 220.421 138.618 216.357 141.488 215.992C144.034 215.668 147.77 216.143 147.77 216.143C147.77 216.143 138.275 214.794 139.156 212.772C140.041 210.753 148.192 212.033 148.192 212.033C148.192 212.033 139.039 209.785 140.456 208.184C141.872 206.583 149.28 207.694 149.28 207.694C149.28 207.694 140.237 206.011 141.925 204.195C143.612 202.38 148.147 204.263 150.226 204.595C152.192 204.907 152.674 206.369 152.305 208.38C152.305 208.38 153.028 210.644 152.478 211.883C152.267 212.357 152.655 212.926 152.651 213.303C152.651 214.022 152.395 215.303 152.395 215.303H152.399Z" fill="#FFAD97"/>
<path d="M480.614 171.22L341.57 168.188L184.116 174.9L183.879 187.77L336.139 178.21C351.458 178.546 363.604 193.57 363.265 211.774C362.926 229.977 350.237 244.459 334.919 244.128L182.896 240.813L182.719 250.32L479.028 256.779C498.915 257.212 515.39 238.41 515.827 214.783C516.264 191.156 500.501 171.649 480.614 171.216V171.22Z" fill="#FFBB01"/>
<path d="M376.783 211.755C377.22 188.128 361.458 168.625 341.57 168.188L184.116 174.9L183.879 187.77L336.139 178.21C351.458 178.546 363.604 193.57 363.265 211.774C362.926 229.977 350.237 244.459 334.919 244.128L182.896 240.813L182.719 250.32L339.985 253.747C359.868 254.18 376.346 235.378 376.783 211.751V211.755Z" fill="#FFBB01"/>
<path d="M336.139 178.252L183.879 187.774C197.653 189.962 201.992 205.047 204 213.103C208.068 229.435 196.746 239.043 182.904 240.629V240.855L334.923 244.169C350.241 244.504 362.934 230.018 363.269 211.815C363.608 193.612 351.461 178.587 336.143 178.252H336.139Z" fill="#E3FFD2"/>
<g opacity="0.3">
<path d="M204.671 220.612L204.652 221.474L327.357 224.152L327.376 223.289L204.671 220.612Z" fill="#002B34"/>
</g>
<g opacity="0.3">
<path d="M298.176 209.614L203.981 212.673L204.009 213.535L298.204 210.476L298.176 209.614Z" fill="#002B34"/>
</g>
<path d="M270.211 252.629L390.151 251.902L525.857 259.589L525.917 270.391L394.723 260.384C381.51 260.463 370.862 272.911 370.945 288.188C371.028 303.465 381.808 315.781 395.021 315.702L526.158 314.907L526.203 322.885L270.602 324.433C253.45 324.538 239.457 308.546 239.348 288.715C239.239 268.885 253.058 252.727 270.211 252.621V252.629Z" fill="#2B4047"/>
<path d="M359.288 287.996C359.179 268.165 372.998 252.007 390.151 251.902L525.857 259.589L525.917 270.391L394.723 260.384C381.51 260.463 370.862 272.911 370.945 288.188C371.028 303.465 381.808 315.781 395.021 315.702L526.158 314.907L526.203 322.885L390.542 323.706C373.39 323.811 359.397 307.819 359.288 287.988V287.996Z" fill="#2B4047"/>
<path d="M394.723 260.414L525.917 270.391C514.011 272.049 510.102 284.647 508.279 291.378C504.584 305.028 514.237 313.235 526.158 314.749V314.937L395.024 315.732C381.812 315.811 371.032 303.495 370.949 288.218C370.866 272.941 381.51 260.493 394.727 260.414H394.723Z" fill="#E3FFD2"/>
<path d="M507.611 297.662L401.764 298.308L401.768 299.043L507.616 298.396L507.611 297.662Z" fill="#002B34"/>
<path d="M371.292 315.548C371.751 315.563 372.211 315.371 372.497 315.002C372.949 314.414 372.795 313.597 372.151 313.175C372.049 313.107 361.894 306.252 360.715 287.883C359.544 269.634 373.668 263.058 373.812 262.994C374.52 262.678 374.806 261.89 374.452 261.243C374.094 260.591 373.239 260.327 372.535 260.64C371.883 260.934 356.58 268.056 357.86 288.011C359.13 307.74 370.045 315.002 370.512 315.303C370.749 315.457 371.021 315.533 371.292 315.54V315.548Z" fill="#002B34"/>
<path d="M427.096 287.226L427.062 287.959L508.258 291.746L508.292 291.012L427.096 287.226Z" fill="#002B34"/>
<path d="M324.297 310.493C324.135 310.282 308.23 288.99 324.034 266.504C324.301 266.124 324.723 265.898 325.175 265.894L349.495 265.747C350.079 265.792 350.523 266.056 350.772 266.557C351.021 267.058 350.983 267.664 350.674 268.124C350.603 268.233 343.567 278.915 345.766 289.442C348.053 300.376 352.26 308.583 352.305 308.666C352.546 309.133 352.538 309.698 352.282 310.158C352.026 310.614 351.563 310.896 351.058 310.9L325.424 311.054C325.424 311.054 325.39 311.054 325.375 311.054C324.957 311.043 324.565 310.836 324.301 310.493H324.297ZM342.968 290.094C341.137 281.344 344.787 272.813 346.934 268.783L325.913 268.911C313.299 287.544 323.8 304.678 326.117 308.034L348.738 307.898C347.28 304.659 344.655 298.15 342.972 290.094H342.968Z" fill="#002B34"/>
<path d="M439.544 323.864L299.774 324.015L141.691 333.582L141.702 345.51L294.508 333.42C309.906 333.405 322.407 347.066 322.422 363.936C322.441 380.806 309.97 394.493 294.572 394.508L141.755 394.67L141.762 403.48L439.623 403.164C459.612 403.141 475.797 385.374 475.774 363.476C475.751 341.578 459.525 323.845 439.537 323.868L439.544 323.864Z" fill="#94C358"/>
<path d="M336.007 363.623C335.985 341.725 319.763 323.992 299.77 324.011L141.687 333.578L141.698 345.506L294.504 333.416C309.902 333.401 322.403 347.062 322.418 363.932C322.437 380.802 309.966 394.489 294.569 394.504L141.751 394.666L141.759 403.476L299.849 403.307C319.838 403.284 336.022 385.518 336 363.619L336.007 363.623Z" fill="#94C358"/>
<path d="M294.512 333.45L141.706 345.51C155.589 347.243 160.245 361.13 162.418 368.546C166.825 383.589 155.638 392.73 141.759 394.493V394.7L294.576 394.538C309.974 394.523 322.444 380.832 322.426 363.966C322.407 347.096 309.909 333.435 294.512 333.45Z" fill="#E3FFD2"/>
<g opacity="0.3">
<path d="M286.6 375.349L163.252 375.478L163.252 376.341L286.601 376.212L286.6 375.349Z" fill="#002B34"/>
</g>
<g opacity="0.5">
<path d="M322.324 392.919C322.584 392.919 322.851 392.851 323.092 392.708C323.631 392.391 336.297 384.678 337.521 363.732C338.169 352.648 333.393 345.348 329.273 341.175C324.825 336.67 320.245 334.794 320.053 334.715C319.277 334.403 318.392 334.779 318.079 335.555C317.766 336.331 318.139 337.216 318.915 337.529C318.957 337.548 323.186 339.295 327.198 343.39C332.505 348.81 334.96 355.593 334.493 363.552C333.367 382.802 321.665 390.022 321.544 390.094C320.828 390.523 320.591 391.454 321.017 392.173C321.299 392.651 321.804 392.915 322.324 392.915V392.919Z" fill="#002B34"/>
</g>
<g opacity="0.3">
<path d="M256.997 363.263L162.409 368.104L162.453 368.966L257.041 364.124L256.997 363.263Z" fill="#002B34"/>
</g>
<g opacity="0.5">
<path d="M346.806 381.702C344.806 378.9 344.29 375.454 345.393 372.256C346.233 369.819 346.945 367.371 347.506 364.975C348.23 361.887 348.102 358.489 347.122 354.87C346.279 351.747 346.949 348.448 348.96 345.819C351.22 342.866 354.908 341.099 358.825 341.096L365.563 341.088H365.578C369.947 341.088 373.94 343.205 376.004 346.617C384.629 360.873 379.819 374.064 376.184 380.659C374.128 384.391 370.015 386.712 365.454 386.715L356.915 386.723H356.9C352.821 386.723 349.047 384.847 346.802 381.702H346.806ZM365.57 344.275L358.832 344.282C355.898 344.282 353.156 345.585 351.491 347.759C350.064 349.623 349.604 351.853 350.196 354.045C351.311 358.177 351.45 362.101 350.602 365.706C350.019 368.203 349.277 370.757 348.399 373.299C347.623 375.544 347.977 377.875 349.393 379.86C351.043 382.169 353.845 383.548 356.9 383.548H356.911L365.45 383.54C368.851 383.54 371.898 381.845 373.393 379.13C376.697 373.137 381.073 361.163 373.277 348.275C371.785 345.811 368.836 344.282 365.574 344.282H365.563L365.57 344.275Z" fill="#002B34"/>
</g>
<path d="M417.247 242.647C417.247 242.647 417.1 247.612 420.38 249.194C423.657 250.775 433.311 252.568 429.503 255.559C427.318 257.273 417.559 255.559 414.787 255.404C412.015 255.254 409.345 256.32 407.386 254.35C405.232 252.184 408.053 242.146 408.053 242.146C408.053 242.146 410.377 243.525 412.531 243.585C415.638 243.676 417.247 242.647 417.247 242.647Z" fill="#002B34"/>
<path d="M447.458 242.617C447.458 242.617 447.311 247.582 450.591 249.163C453.872 250.745 463.522 252.538 459.714 255.529C457.529 257.243 447.77 255.529 444.998 255.374C442.226 255.224 439.555 256.29 437.597 254.32C435.442 252.154 438.264 242.116 438.264 242.116C438.264 242.116 440.587 243.495 442.746 243.555C445.853 243.646 447.461 242.617 447.461 242.617H447.458Z" fill="#002B34"/>
<path d="M451.055 234.414C448.599 201.887 448.023 179.939 437.729 165.838C426.463 150.406 396.264 139.491 384.618 138.809C365.627 137.698 356.678 140.527 356.678 140.527C342.422 170.169 364.749 174.101 381.265 174.911C381.812 174.937 382.358 174.967 382.908 175.001C392.908 175.63 410.685 178.173 417.416 188.109C422.746 195.977 426.444 207.024 428.004 235.514C428.301 240.983 432.889 245.22 438.361 245.069C438.361 245.069 451.936 246.109 451.055 234.41V234.414Z" fill="#015700"/>
<path d="M424.098 236.09C424.422 203.472 425.435 186.821 415.646 172.365C409.356 163.081 399.898 156.067 387.533 151.529C378.708 148.29 368.328 146.301 356.685 145.623C337.695 144.512 329.16 142.218 329.16 142.218C313.789 180.162 370.011 172.109 384.648 188.275C391.024 195.318 398.926 208.715 400.486 237.209C400.783 242.678 405.371 246.915 410.844 246.764C410.844 246.764 423.981 248.015 424.098 236.09Z" fill="#015700"/>
<path d="M424.004 204.052L424.222 204.041C424.211 203.845 423.247 184.452 419.985 177.653C415.857 169.05 403.895 160.075 391.537 156.305L391.473 156.512C403.778 160.263 415.684 169.194 419.785 177.743C423.028 184.5 423.992 203.853 424 204.045L424.004 204.052Z" fill="#002B34"/>
<path d="M403.819 114.508C411.036 115.879 419.205 114.591 428.132 110.662C434.874 107.698 439.65 104.218 439.849 104.071L431.962 92.7829L435.906 98.4288L431.974 92.7754C427.868 95.7584 415.134 102.986 405.616 100.647C401.296 99.5814 397.962 96.5908 395.424 91.4948L383.266 97.8902C387.586 106.561 394.192 112.199 402.373 114.195C402.847 114.312 403.33 114.418 403.815 114.508H403.819Z" fill="#FFAD97"/>
<path d="M342.633 81.9731C342.633 81.9731 350.712 68.1614 369.337 72.4025C387.962 76.6398 395.548 95.6643 396.885 141.344C396.885 141.344 379.642 140.711 334.343 155.736C328.975 157.517 321.107 156.105 323.861 146.964C328.983 129.973 333.943 96.0786 342.636 81.9769L342.633 81.9731Z" fill="#83BB26"/>
<path d="M322.143 86.007L341.299 89.6077C341.299 89.6077 374.798 99.5136 384.177 99.5927C393.555 99.6718 397.435 92.813 397.435 92.813C397.435 92.813 389.872 79.9731 374.019 73.9166C372.531 73.3441 370.968 72.8356 369.333 72.4024C366.587 71.6755 363.796 71.039 361.002 71.0088C329.378 70.6473 322.139 86.007 322.139 86.007H322.143Z" fill="#83BB26"/>
<path d="M322.143 86.007C321.729 87.5174 325.744 90.0371 331.111 91.6341C336.478 93.2311 341.168 93.3027 341.582 91.7923C341.996 90.282 337.981 87.7622 332.614 86.1652C327.247 84.5682 322.557 84.4966 322.143 86.007Z" fill="#002B34"/>
<path d="M361.039 71.0088C363.085 71.1746 365.066 70.248 366.218 68.5456L369.823 63.216L370.87 61.668L377.017 52.5719L374.328 62.6962L372.712 68.7753L372.252 70.5079C371.876 71.9203 372.636 73.3817 374.004 73.9015L374.026 73.909C374.55 75.2875 375.122 77.9956 371.8 78.3987C367.898 78.8695 362.493 74.8431 361.013 71.0013C361.024 71.0013 361.036 71.0013 361.047 71.0013L361.039 71.0088Z" fill="#FFAD97"/>
<path d="M365.729 48.6811C365.729 48.6811 365.804 50.4401 364.181 53.7094C361.804 58.4928 367.175 61.6981 368.926 60.538C369.145 60.3949 370.535 51.7546 370.535 51.7546L368.896 50.3082L365.725 48.6811H365.729Z" fill="#002B34"/>
<path d="M369.842 63.0465C369.834 63.103 369.827 63.1595 369.819 63.2198C369.435 66.5757 372.682 68.7942 372.682 68.7942L372.708 68.7791L374.324 62.7C373.318 62.0974 371.853 61.3968 370.866 61.668C370.35 61.8111 369.966 62.2179 369.842 63.0427V63.0465Z" fill="#002B34"/>
<path d="M386.787 56.128C388.036 49.5558 384.73 43.4072 379.402 42.3947C374.074 41.3823 368.743 45.8894 367.494 52.4616C366.245 59.0338 369.551 65.1824 374.879 66.1948C380.207 67.2073 385.538 62.7002 386.787 56.128Z" fill="#FFAD97"/>
<path d="M382.723 45.8977C382.384 46.2141 382.742 52.6209 371.122 51.9278C359.503 51.2348 368.93 38.7677 377.36 40.0483C389.529 41.8977 389.744 50.3534 388.026 53.0578C386.309 55.7621 382.727 45.8977 382.727 45.8977H382.723Z" fill="#002B34"/>
<path d="M366.674 35.0502C366.674 35.0502 371.122 39.4269 366.591 41.8902C362.064 44.3535 351.021 43.7094 352.93 49.6793C354.84 55.6491 355.864 64.1539 350.38 64.1501C344.9 64.1501 341.646 63.1143 338.689 66.9147C335.732 70.7151 326.629 66.2819 328.365 61.4194C330.102 56.5569 322.712 50.5832 327.115 46.6397C331.518 42.7 340.904 40.3271 344.199 34.7226C347.499 29.118 363.055 31.6604 366.674 35.0465V35.0502Z" fill="#002B34"/>
<path d="M372.742 50.2179C372.742 50.2179 367.179 54.2216 367.838 59.5248C367.838 59.5248 365.71 56.0785 365.857 54.9674C366.007 53.8601 367.472 50.0371 367.472 50.0371L372.742 50.2179Z" fill="#002B34"/>
<path d="M368.471 54.5117C369.363 55.7621 370.874 56.1614 371.838 55.4005C372.802 54.6397 372.862 53.0088 371.966 51.7584C371.073 50.5079 369.563 50.1086 368.599 50.8695C367.635 51.6303 367.574 53.2612 368.471 54.5117Z" fill="#FFAD97"/>
<path d="M338.885 66.9636C340.313 61.5926 343.476 61.3516 346.829 61.0955C348.158 60.9938 349.533 60.8883 350.844 60.4702C351.469 60.2706 351.906 59.9241 352.143 59.442C352.738 58.2329 352.049 56.3271 351.25 54.1199C350.087 50.9034 348.768 47.2612 350.738 44.4288C354.55 38.9486 360.313 38.7113 360.373 38.7075C363.729 38.9184 365.465 38.5418 365.665 37.555C365.868 36.5568 364.298 35.4495 363.718 35.2461C359.021 33.6039 353.589 32.941 345.725 39.1595C339.522 44.0634 339.947 46.8205 340.486 50.3158C340.606 51.0879 340.727 51.8827 340.783 52.7489C340.829 53.4344 340.685 53.9429 340.343 54.3007C339.586 55.0992 337.895 55.0804 336.256 55.0616C334.139 55.0352 331.955 55.0126 331.363 56.6925C330.904 58.007 331.427 59.57 331.932 61.0842C332.452 62.6322 332.942 64.0974 332.339 65.1218C331.943 65.7923 331.104 66.233 329.766 66.4778L329.838 66.8733C331.296 66.6058 332.226 66.1011 332.686 65.3252C333.382 64.1426 332.863 62.5945 332.313 60.9561C331.827 59.5098 331.326 58.0107 331.74 56.828C332.234 55.4194 334.185 55.442 336.245 55.4683C337.966 55.4872 339.748 55.5098 340.629 54.5832C341.047 54.1425 341.232 53.5211 341.179 52.7263C341.122 51.8412 340.998 51.0352 340.878 50.2555C340.358 46.8921 339.947 44.2367 345.966 39.4759C353.68 33.3779 358.987 34.0258 363.574 35.6303C364.132 35.8261 365.394 36.813 365.262 37.4759C365.194 37.8148 364.58 38.5719 360.369 38.3045C360.29 38.3045 354.324 38.5531 350.399 44.1953C348.313 47.1971 349.729 51.1068 350.866 54.2518C351.635 56.3723 352.298 58.2066 351.778 59.2612C351.589 59.6491 351.243 59.9166 350.719 60.0861C349.454 60.4928 348.105 60.5945 346.799 60.6962C343.303 60.9636 339.996 61.216 338.497 66.862L338.889 66.9636H338.885Z" fill="white"/>
<path d="M373.058 48.3685C376.663 48.3685 378.979 45.8864 379.005 45.86L378.734 45.6115C378.708 45.6416 375.943 48.5907 371.793 47.8939L371.732 48.2555C372.192 48.3346 372.636 48.3685 373.058 48.3685Z" fill="white"/>
<path d="M382.994 63.1331C380.926 62.3234 380.011 59.6642 380.953 57.2085C381.458 55.8902 382.418 54.8394 383.589 54.3233C384.523 53.909 385.522 53.8751 386.407 54.2217C388.474 55.0314 389.39 57.6906 388.452 60.1463C387.947 61.4646 386.987 62.5154 385.815 63.0315C385.088 63.3516 384.324 63.4458 383.604 63.3102C383.397 63.2725 383.194 63.2122 382.998 63.1369L382.994 63.1331ZM383.683 54.538C382.569 55.0314 381.653 56.0333 381.171 57.2913C380.279 59.6266 381.134 62.1501 383.081 62.9109C383.906 63.2348 384.844 63.2009 385.717 62.813C386.832 62.3196 387.748 61.3177 388.23 60.0597C389.122 57.7245 388.267 55.2009 386.32 54.4401C386.135 54.3685 385.947 54.3158 385.755 54.2782C385.081 54.1501 384.361 54.2367 383.683 54.538Z" fill="#83BB26"/>
<path d="M373.909 60.0446C371.842 59.2348 370.926 56.5757 371.864 54.12C372.369 52.8017 373.329 51.7508 374.501 51.2348C375.435 50.8243 376.433 50.7866 377.318 51.1331C379.386 51.9429 380.301 54.6021 379.36 57.0578C378.855 58.3761 377.894 59.4269 376.723 59.9429C375.996 60.2631 375.231 60.3572 374.512 60.2179C374.305 60.1802 374.101 60.12 373.906 60.0446H373.909ZM374.599 51.4495C373.484 51.9429 372.569 52.9448 372.086 54.2028C371.194 56.538 372.049 59.0616 373.996 59.8224C374.821 60.1463 375.759 60.1124 376.633 59.7245C377.747 59.2311 378.663 58.2292 379.145 56.9712C380.037 54.636 379.182 52.1124 377.235 51.3516C377.051 51.28 376.862 51.2273 376.67 51.1896C375.996 51.0616 375.277 51.1482 374.599 51.4495Z" fill="#83BB26"/>
<path d="M382.008 57.8676C382.045 57.8751 382.083 57.8676 382.113 57.8374C382.158 57.7922 382.162 57.7169 382.113 57.6717C382.068 57.6265 380.991 56.5229 378.757 56.4363C378.693 56.4363 378.637 56.4853 378.633 56.5493C378.633 56.6133 378.682 56.6698 378.746 56.6736C380.878 56.7565 381.928 57.8261 381.94 57.8374C381.959 57.8563 381.981 57.8676 382.004 57.8713L382.008 57.8676Z" fill="#83BB26"/>
<path d="M381.028 63.0202C381.028 63.0202 377.718 62.4702 374.644 60.6849C374.644 60.6849 373.751 63.8789 377.281 64.7753C379.333 65.2951 381.028 63.0164 381.028 63.0164V63.0202Z" fill="#E9633E"/>
<path d="M381.028 63.0202C381.028 63.0202 380.105 63.5286 378.245 63.1671C376.388 62.8055 374.644 60.6849 374.644 60.6849C374.644 60.6849 378.407 62.5305 381.028 63.0202Z" fill="white"/>
<path d="M378.079 54.5983C378.147 54.5945 378.211 54.5569 378.249 54.4966C378.316 54.3911 378.286 54.2555 378.181 54.1877C378.12 54.1501 376.787 53.1068 375.22 54.2819C375.122 54.3572 375.096 54.4928 375.168 54.5945C375.239 54.6962 375.367 54.6962 375.48 54.6473C376.618 54.1614 377.887 54.5343 377.94 54.5682C377.981 54.5945 378.03 54.6058 378.075 54.6021L378.079 54.5983Z" fill="#002B34"/>
<path d="M375.883 56.6774C375.766 57.1971 375.977 57.6868 376.358 57.7734C376.734 57.8563 377.134 57.506 377.25 56.9824C377.367 56.4627 377.156 55.973 376.776 55.8864C376.399 55.8035 376 56.1538 375.883 56.6774Z" fill="#002B34"/>
<path d="M385.691 57.231C385.755 57.2536 385.83 57.2423 385.887 57.2009C385.989 57.1293 386.011 56.99 385.943 56.892C385.902 56.8318 385.066 55.3629 383.171 55.8487C383.051 55.8789 382.975 55.9956 383.006 56.1162C383.036 56.2367 383.152 56.2856 383.273 56.2819C384.508 56.2668 385.544 57.0954 385.578 57.1444C385.608 57.1858 385.646 57.2122 385.691 57.2273V57.231Z" fill="#002B34"/>
<path d="M382.87 58.3196C382.565 58.7565 382.572 59.2913 382.889 59.5136C383.205 59.7358 383.71 59.5625 384.015 59.1256C384.32 58.6887 384.313 58.1539 383.996 57.9316C383.68 57.7094 383.175 57.8827 382.87 58.3196Z" fill="#002B34"/>
<path d="M369.766 147.261C369.766 147.261 380.531 146.647 383.311 148.956C386.09 151.265 387.894 156.316 385.868 155.25C383.842 154.184 381.627 152.109 381.627 152.109C381.627 152.109 386.147 156.768 384.603 157.352C383.055 157.935 379.164 153.849 379.164 153.849C379.164 153.849 384.102 159.822 382.459 159.902C380.817 159.981 377.1 155.419 377.1 155.419C377.1 155.419 381.473 161.16 379.563 161.209C377.653 161.258 375.981 156.44 374.433 157.028C372.885 157.612 368.456 160.99 366.301 156.885L369.766 147.261Z" fill="#FFAD97"/>
<path d="M381.518 152.184L381.736 152.03C381.691 151.966 380.595 150.455 379.405 150.485L379.412 150.753C380.463 150.734 381.506 152.173 381.518 152.184Z" fill="#F47C53"/>
<path d="M379.051 153.924L379.269 153.774C379.224 153.709 378.188 152.229 376.535 151.939L376.49 152.203C378.034 152.474 379.04 153.909 379.051 153.924Z" fill="#F47C53"/>
<path d="M376.987 155.495L377.205 155.34C377.153 155.265 375.861 153.476 374.595 153.615L374.625 153.879C375.736 153.755 376.976 155.476 376.991 155.495H376.987Z" fill="#F47C53"/>
<path d="M330.086 135.386C338.015 148.365 348.162 153.578 366.301 156.885L369.766 147.265C356.561 144.858 349.796 135.299 344.482 126.598C336.923 114.218 338.286 99.1369 339.416 92.474C339.525 91.8412 339.273 91.2047 338.764 90.8168C337.077 89.5249 332.7 86.8921 324.885 86.7377C324.188 86.7226 323.574 87.1896 323.393 87.8638C320.124 100.184 320.101 119.043 330.083 135.389L330.086 135.386Z" fill="#FFAD97"/>
<path d="M333.088 132.549C332.158 132.173 331.326 131.291 330.859 130.188C330.045 128.259 330.55 126.195 331.981 125.585C332.55 125.344 333.186 125.352 333.83 125.612C334.761 125.988 335.593 126.87 336.06 127.973C336.874 129.902 336.369 131.966 334.938 132.576C334.663 132.693 334.373 132.753 334.075 132.753C333.755 132.753 333.424 132.685 333.092 132.553L333.088 132.549ZM332.23 126.165C331.115 126.64 330.761 128.338 331.439 129.947C331.842 130.9 332.546 131.653 333.326 131.969C333.808 132.165 334.282 132.173 334.689 131.999C335.804 131.525 336.158 129.826 335.48 128.218C335.077 127.265 334.373 126.512 333.593 126.195C333.337 126.094 333.088 126.041 332.847 126.041C332.633 126.041 332.426 126.082 332.23 126.165Z" fill="#F47C53"/>
<path d="M401.62 95.8375L399.277 121.807C399.13 122.926 398.908 125.992 406.234 125.246L418.735 123.532C418.915 123.593 420.207 121.024 420.399 121.02L423.006 121.966C423.409 121.966 423.812 121.83 424.158 121.581L434.727 114.018C435.266 113.634 435.631 113.009 435.729 112.312L438.833 90.1124C439.085 88.3121 437.503 86.9976 436.008 87.7621L427.303 92.2292C427.066 92.3497 426.814 92.4251 426.558 92.4439L422.633 92.7414C422.252 92.7716 422.399 92.8959 422.072 92.6962L404.738 91.4872C402.004 91.4872 401.838 94.1878 401.62 95.8337V95.8375Z" fill="#94C358"/>
<path d="M422.053 92.7904L426.945 92.4175L423.619 121.966C423.619 121.966 423.469 124.659 418.73 123.529L422.049 92.7867L422.053 92.7904Z" fill="#002B34"/>
<path d="M405.503 91.5437C405.503 91.5437 405.849 89.6379 408.569 90.3497C411.909 91.2236 419.461 89.5475 421.375 90.248C423.288 90.9486 424.083 91.3064 424.083 91.3064C424.083 91.3064 423.876 89.4533 426.414 89.039C428.953 88.6247 433.838 86.7904 435.017 88.2782L426.945 92.4213L422.053 92.7942L405.503 91.5475V91.5437Z" fill="#E4ECFF"/>
<path d="M423.891 91.378L424.275 91.2386C424.264 91.2123 423.262 88.5494 420.23 89.0013C417.951 89.3403 415.755 89.4044 413.635 89.4646C411.284 89.5324 409.066 89.5927 407.167 90.0522L407.265 90.4514C409.122 90.0032 411.318 89.943 413.646 89.8752C415.781 89.8149 417.985 89.7509 420.29 89.4081C422.983 89.0051 423.853 91.2838 423.891 91.3818V91.378Z" fill="#E4ECFF"/>
<path d="M442.057 101.611C442.057 101.611 443.838 97.7057 440.26 96.1049C435.703 94.0672 428.072 95.894 430.942 97.2273C433.488 98.4062 437.503 99.2198 437.503 99.2198C437.503 99.2198 427.266 97.2989 427.593 99.5625C427.921 101.826 436.75 103.355 436.75 103.355C436.75 103.355 426.607 102.425 427.608 104.463C428.61 106.5 436.618 107.939 436.618 107.939C436.618 107.939 426.753 106.497 427.974 108.836C429.194 111.175 434.445 110.885 436.697 111.273C438.825 111.638 439.752 110.384 439.955 108.305C439.955 108.305 441.364 106.353 441.153 104.96C441.074 104.425 441.639 104.007 441.748 103.642C441.955 102.945 442.064 101.611 442.064 101.611H442.057Z" fill="#FFAD97"/>
<path d="M209.118 396.309C209.118 396.309 208.874 401.627 205.246 403.051C201.616 404.478 191.156 405.615 194.983 409.115C197.179 411.122 207.744 410.071 210.719 410.135C213.695 410.196 216.463 411.551 218.715 409.604C221.194 407.465 218.987 396.508 218.987 396.508C218.987 396.508 216.391 397.793 214.083 397.683C210.757 397.529 209.118 396.301 209.118 396.301V396.309Z" fill="#002B34"/>
<path d="M177.378 393.254C177.378 393.254 177.077 398.568 173.431 399.954C169.785 401.341 159.314 402.369 163.103 405.909C165.277 407.943 175.853 407.005 178.828 407.099C181.804 407.194 184.557 408.576 186.828 406.655C189.329 404.542 187.239 393.563 187.239 393.563C187.239 393.563 184.629 394.821 182.324 394.685C178.998 394.493 177.374 393.25 177.374 393.25L177.378 393.254Z" fill="#002B34"/>
<path d="M179.808 397.653C173.661 396.953 169.148 391.54 169.574 385.367C171.973 350.493 175.216 332.93 186.998 318.399C194.568 309.062 205.623 300.203 218.881 295.363C230.312 291.19 239.943 289.423 252.44 289.77C272.817 290.331 282.113 294.173 282.113 294.173C294.602 327.133 270.403 329.276 252.697 328.621C252.113 328.598 251.525 328.583 250.934 328.568C240.199 328.32 220.983 329.397 212.885 339.386C206.471 347.295 201.506 358.749 197.22 389.024C196.399 394.832 191.111 398.938 185.28 398.275L179.811 397.653H179.808Z" fill="#015700"/>
<path d="M209.028 401.992C202.881 401.292 198.369 395.879 198.794 389.706C201.194 354.832 204.437 337.269 216.218 322.738C223.789 313.401 234.531 306.787 248.15 303.081C257.872 300.437 269.133 299.269 281.631 299.612C302.007 300.173 311.329 298.512 311.329 298.512C324.248 340.437 264.964 326.663 247.849 342.576C240.391 349.51 230.723 363.084 226.437 393.363C225.616 399.171 220.327 403.277 214.497 402.614L209.028 401.992Z" fill="#015700"/>
<path d="M249.307 239.299C247.699 241.374 232.007 259.246 231.808 278.975L246.441 276.015L256.655 250.9L249.307 239.303V239.299Z" fill="#FFAD97"/>
<path d="M305.97 239.431C305.97 239.431 299.71 222.858 278.309 224.007C256.911 225.156 241.879 233.597 238.772 293.318C238.772 293.318 268.305 291.638 302.068 311.514C307.751 314.858 316.629 314.184 316.99 307.6C317.714 294.482 315.017 269.427 305.97 239.431Z" fill="#FF4929"/>
<path d="M324.768 242.049L305.966 248.003C305.966 248.003 267.036 252.561 256.659 250.896C246.282 249.231 243.318 241.028 243.318 241.028C243.318 241.028 254.154 228.436 272.84 224.787C274.595 224.44 276.418 224.177 278.309 224.011C281.484 223.732 284.535 223.438 287.65 223.766C318.094 226.96 324.768 242.049 324.768 242.049Z" fill="#FF4929"/>
<path d="M324.768 242.049C325.774 244.29 321.371 246.395 315.97 248.395C310.569 250.395 305.755 250.802 305.213 249.295C304.67 247.792 308.61 244.949 314.011 242.949C319.412 240.949 324.113 240.587 324.768 242.049Z" fill="#002B34"/>
<path d="M271.239 299.284C267.578 298.742 264.708 297.367 262.542 295.167C258.452 291.009 258.418 285.344 259.634 281.755L264.422 279.845C264.821 278.67 272.655 284.425 272.644 284.418C272.681 284.437 276.527 286.195 291.521 281.141C301.958 277.623 307.894 271.31 309.664 261.849C310.998 254.715 308.678 251.05 308.184 249.194C308.116 248.945 309.472 245.834 315.043 243.992C321.058 242.003 323.246 243.551 323.246 243.551C324.143 246.919 325.977 254.61 324.116 264.561C322.184 274.896 315.762 288.606 296.15 295.216C285.454 298.821 277.28 300.177 271.246 299.28L271.239 299.284Z" fill="#FFAD97"/>
<g opacity="0.3">
<path d="M308.685 283.299C307.815 282.602 308.109 280.824 309.348 279.246C310.158 278.218 311.201 277.514 312.071 277.416C312.482 277.371 312.844 277.457 313.115 277.676C313.985 278.372 313.691 280.15 312.452 281.728C311.642 282.757 310.599 283.461 309.729 283.559C309.657 283.566 309.586 283.57 309.518 283.57C309.194 283.57 308.908 283.476 308.685 283.299ZM312.053 281.412C313.081 280.105 313.424 278.576 312.798 278.075C312.633 277.943 312.41 277.894 312.132 277.924C311.405 278.007 310.467 278.651 309.751 279.563C308.723 280.87 308.38 282.399 309.006 282.9C309.171 283.032 309.394 283.084 309.672 283.05C310.399 282.968 311.337 282.324 312.053 281.412Z" fill="#F47C53"/>
</g>
<path d="M282.166 221.126L278.941 215.442L278.004 213.789L272.49 204.06L274.335 214.534L275.442 220.821L275.793 222.809C276.03 224.161 275.277 224.621 274.538 226C274.241 226.561 272.29 229.981 275.495 230.632C279.488 231.446 285.763 227.521 287.65 223.762C287.627 223.762 283.205 222.96 282.166 221.122V221.126Z" fill="#FFAD97"/>
<path d="M263.311 201.958C263.311 201.958 263.205 204.629 264.557 207.653C265.91 210.678 267.427 202.188 267.427 202.188L263.311 201.962V201.958Z" fill="#002B34"/>
<path d="M264.373 208.647C263.838 202.346 267.638 196.881 272.862 196.436C278.086 195.992 282.757 200.738 283.292 207.039C283.827 213.34 280.026 218.806 274.802 219.25C269.578 219.694 264.908 214.949 264.373 208.647Z" fill="#FFAD97"/>
<path d="M282.825 203.789L278.233 204.305C277.224 204.418 276.207 204.086 275.487 203.367C274.252 202.128 272.983 201.63 268.832 202.704C263.574 204.064 259.382 201.668 258.199 199.017C256.994 196.312 259.288 193.8 262.248 194.568C265.209 195.337 263.341 192.275 265.823 191.363C270.467 189.661 272.169 193.152 276.06 192.177C281.164 190.896 291.22 192.787 288.832 202.787L282.821 203.789H282.825Z" fill="#002B34"/>
<path d="M273.243 207.484C273.186 207.465 273.141 207.419 273.126 207.359C273.096 207.258 273.152 207.152 273.254 207.118C273.314 207.099 274.659 206.542 275.691 207.879C275.755 207.962 275.744 208.082 275.661 208.15C275.578 208.218 275.473 208.188 275.39 208.12C274.557 207.453 273.416 207.472 273.367 207.487C273.326 207.499 273.284 207.499 273.247 207.487L273.243 207.484Z" fill="#002B34"/>
<path d="M274.587 209.717C274.565 210.177 274.275 210.534 273.943 210.516C273.612 210.497 273.36 210.113 273.382 209.653C273.405 209.194 273.695 208.836 274.026 208.855C274.358 208.873 274.61 209.258 274.587 209.717Z" fill="#002B34"/>
<path d="M266.165 208.448C266.12 208.448 266.075 208.425 266.045 208.376C265.992 208.293 266 208.173 266.064 208.105C266.101 208.067 266.889 207.05 268.03 207.905C268.101 207.958 268.132 208.075 268.09 208.169C268.052 208.263 267.97 208.274 267.891 208.244C267.096 207.935 266.29 208.376 266.26 208.41C266.233 208.436 266.203 208.452 266.173 208.452L266.165 208.448Z" fill="#002B34"/>
<path d="M268.301 210C268.456 210.433 268.324 210.873 268.011 210.986C267.699 211.096 267.318 210.836 267.164 210.403C267.009 209.969 267.141 209.529 267.454 209.416C267.766 209.307 268.147 209.566 268.301 210Z" fill="#002B34"/>
<path d="M288.836 202.787C288.836 202.787 287.201 210.154 282.911 211.608C282.911 211.608 285.352 205.732 277.179 204.263C277.179 204.263 283.823 201.676 288.836 202.787Z" fill="#002B34"/>
<path d="M283.446 207.834C282.636 208.636 281.397 208.704 280.682 207.981C279.962 207.258 280.037 206.018 280.847 205.216C281.657 204.414 282.896 204.346 283.612 205.069C284.331 205.792 284.256 207.032 283.446 207.834Z" fill="#FFAD97"/>
<path d="M277.179 204.263C277.179 204.263 279.005 209.747 278.098 211.058C277.186 212.369 269.744 214.474 265.924 213.887C266.655 217.506 269.891 220.131 273.578 219.951C274.798 219.89 276.015 219.627 277.179 219.152C279.548 218.18 281.721 216.64 282.241 214.128C282.399 213.363 280.561 209.28 280.561 209.28C280.561 209.28 279.672 206.843 280.847 205.216C280.847 205.216 278.828 204.067 277.182 204.263H277.179Z" fill="#002B34"/>
<path d="M268.222 215.502C268.222 215.502 271.284 215.653 274.376 214.655C274.376 214.655 274.553 217.683 271.228 217.796C269.295 217.864 268.222 215.499 268.222 215.499V215.502Z" fill="white"/>
<path d="M262.644 194.018C264.117 193.743 263.973 192.47 263.973 192.459L263.717 192.489C263.721 192.531 263.827 193.532 262.599 193.762L262.648 194.018H262.644Z" fill="#002B34"/>
<path d="M267.002 201.548L267.009 201.419C266.949 201.416 260.941 200.975 260.071 198.124C259.827 197.318 259.845 196.741 260.128 196.365C260.58 195.762 261.653 195.774 262.595 195.789C262.738 195.789 262.877 195.792 263.017 195.789V195.661C262.885 195.661 262.742 195.661 262.595 195.661C261.619 195.645 260.516 195.63 260.022 196.29C259.714 196.7 259.687 197.314 259.947 198.165C260.32 199.386 261.657 200.357 263.823 200.979C265.446 201.446 266.983 201.551 266.998 201.555L267.002 201.548Z" fill="white"/>
<path d="M274.478 193.487C275.642 193.487 276.99 193.288 278.493 192.738L278.448 192.617C273.103 194.568 269.774 192.052 269.74 192.026L269.661 192.128C269.683 192.146 271.457 193.487 274.474 193.487H274.478Z" fill="white"/>
<path d="M200.35 370.098H200.583C200.583 369.966 200.602 356.689 205.536 342.433C208.433 334.064 212.429 327.002 217.416 321.438C223.646 314.489 231.45 309.872 240.614 307.717L240.561 307.491C231.352 309.657 223.506 314.297 217.243 321.288C212.233 326.877 208.222 333.97 205.318 342.369C200.373 356.663 200.354 369.973 200.354 370.105L200.35 370.098Z" fill="#002B34"/>
<path d="M268.237 271.928L265.721 299.035C265.623 300.098 264.809 300.934 263.792 301.024L244.406 302.783C244.211 302.802 244.011 302.791 243.815 302.749L239.97 301.969C239.563 301.887 239.19 301.683 238.892 301.382L231.299 293.672C230.843 293.209 229.826 292.098 229.883 291.435L231.811 265.936C231.811 262.467 233.969 261.951 235.307 262.964L242.527 273.894C242.738 274.056 242.659 273.932 242.911 274L246.798 275.069C247.175 275.175 247.574 275.167 247.947 275.05L265.518 269.593C266.964 269.145 268.384 270.361 268.241 271.924L268.237 271.928Z" fill="#54A233"/>
<path d="M247.371 275.231L242.52 273.898L239.344 301.845C239.344 301.845 240.535 303.774 244.109 302.809L247.371 275.227V275.231Z" fill="#002B34"/>
<path d="M264.226 269.996C264.226 269.996 262.719 268.904 259.247 269.627C255.774 270.35 250.614 271.951 248.527 272.211C246.444 272.47 245.65 273.45 245.65 273.45C245.65 273.45 246.267 271.781 243.8 270.885C241.333 269.988 237.329 262.625 235.812 263.759L242.52 273.898L247.371 275.231L264.226 269.996Z" fill="#E4ECFF"/>
<path d="M245.853 273.484C245.853 273.484 246.079 272.474 248.802 271.898C249.469 271.759 250.376 271.502 251.427 271.205C254.964 270.211 260.305 268.708 262.862 269.845L263.028 269.476C260.339 268.278 254.911 269.804 251.318 270.813C250.275 271.107 249.375 271.359 248.719 271.499C245.721 272.135 245.472 273.292 245.454 273.42L245.853 273.48V273.484Z" fill="#E4ECFF"/>
<path d="M271.069 283.318C271.069 283.318 268.712 276.177 264.67 274.429C260.629 272.681 254.147 273.502 256.422 275.118C258.697 276.734 262.173 277.996 262.173 277.996C262.173 277.996 254.617 275.649 254.836 277.653C255.051 279.657 261.642 281.634 261.642 281.634C261.642 281.634 252.429 279.559 253.246 281.386C254.064 283.212 261.073 284.742 261.073 284.742C261.073 284.742 252.425 283.152 253.423 285.254C254.422 287.356 260.58 286.519 260.794 288.523C261.009 290.527 262.55 298.418 268.192 298.493L271.069 283.318Z" fill="#FFAD97"/>
<path d="M264.862 279.653L265.156 279.514C264.535 278.207 262.29 277.849 262.196 277.834L262.147 278.154C262.169 278.154 264.316 278.501 264.866 279.653H264.862Z" fill="#F47C53"/>
<path d="M264.9 283.63L265.16 283.435C263.932 281.796 261.751 281.484 261.661 281.472L261.616 281.796C261.638 281.796 263.755 282.101 264.9 283.63Z" fill="#F47C53"/>
<path d="M264.102 286.58L264.407 286.467C263.861 285.017 261.205 284.598 261.092 284.58L261.043 284.9C261.07 284.904 263.623 285.307 264.102 286.58Z" fill="#F47C53"/>
<path d="M226.689 284.071C226.689 284.071 226.376 288.211 230.158 288.474C234.975 288.806 241.296 284.598 238.248 284.346C235.544 284.124 231.627 284.727 231.627 284.727C231.627 284.727 241.567 283.054 240.512 281.111C239.461 279.167 230.934 280.719 230.934 280.719C230.934 280.719 240.456 278.18 238.866 276.662C237.277 275.148 229.525 276.508 229.525 276.508C229.525 276.508 238.964 274.527 237.077 272.809C235.19 271.092 230.516 273.107 228.343 273.506C226.286 273.887 225.864 275.333 226.373 277.288C226.373 277.288 225.744 279.529 226.399 280.723C226.651 281.182 226.275 281.751 226.297 282.116C226.343 282.821 226.689 284.067 226.689 284.067V284.071Z" fill="#FFAD97"/>
<path d="M239.627 100.026L218.504 116.248C218.395 116.331 218.241 116.312 218.158 116.203C207.239 102.18 185.601 103.344 183.171 103.521C169.344 104.734 156.373 98.3347 143.518 83.9618C136.422 76.0296 133.111 65.2838 134.192 53.7019C135.634 38.2555 144.591 22.8167 158.15 12.4024C169.567 3.63026 184.486 0.0935358 200.15 2.44382C214.975 4.66604 228.068 11.8374 236.075 22.1199C245.634 34.3911 246.241 49.4872 237.793 64.6171C232.584 74.7753 233.367 83.7622 234.945 89.5136C236.655 95.7509 239.638 99.6379 239.668 99.6755C239.71 99.7283 239.725 99.7923 239.717 99.8601C239.714 99.9015 239.698 99.9392 239.672 99.9731C239.657 99.9919 239.642 100.011 239.619 100.026H239.627ZM134.685 53.7471C133.616 65.1896 136.885 75.8036 143.887 83.6303C156.632 97.8827 169.469 104.225 183.133 103.028C185.582 102.847 207.273 101.683 218.395 115.706L239.13 99.781C238.497 98.9034 235.992 95.1934 234.474 89.6642C232.87 83.8262 232.068 74.7 237.359 64.3836C245.71 49.4307 245.115 34.5267 235.687 22.4212C227.872 12.3873 214.561 5.10296 200.079 2.9297C184.546 0.602011 169.762 4.10107 158.452 12.7903C153.28 16.764 148.783 21.4721 145.126 26.6322C139.269 34.8958 135.567 44.3196 134.685 53.7433V53.7471Z" fill="#00613E"/>
<g opacity="0.4">
<path d="M194 21.747C186.712 19.5512 179.235 22.4966 179.164 22.5267C179.122 22.5418 179.077 22.5493 179.036 22.5418C177.461 22.3045 176.478 21.6792 176.113 20.6773C175.412 18.7753 176.949 15.6943 180.81 11.2611C182.248 9.61142 185.07 8.51538 188.361 8.32705C192.633 8.086 196.704 9.32894 199.247 11.6604C201.793 13.9918 202.606 17.3214 201.224 19.7546C201.145 19.8977 201.058 20.0295 200.968 20.1613C199.616 22.0709 197.054 22.666 194.004 21.747H194ZM176.572 20.5079C176.866 21.3101 177.698 21.8261 179.043 22.0446C179.804 21.7546 187.051 19.1369 194.143 21.2762C197.164 22.1877 199.65 21.5286 200.795 19.5135C202.064 17.28 201.292 14.2028 198.915 12.0257C196.467 9.78468 192.531 8.58694 188.392 8.82046C185.231 9.00125 182.535 10.0333 181.182 11.5851C180.181 12.7338 179.341 13.7922 178.655 14.7564C176.821 17.344 176.12 19.2724 176.576 20.5079H176.572Z" fill="#00613E"/>
</g>
<path d="M161.789 10.5982C185.996 -7.99311 223.228 -0.456378 239.371 20.2706C249.518 33.2988 248.919 48.4401 241.066 62.5041C230.904 82.3271 242.964 97.83 242.964 97.83L221.842 114.052C210.877 99.9731 189.352 101.077 186.64 101.276C173.808 102.402 160.817 97.0315 147.19 81.7961C129.668 62.2028 137.582 29.1896 161.789 10.5982Z" fill="#83BB26"/>
<path d="M216.972 109.201C216.972 109.201 211.073 115.299 218.448 121.472C218.448 121.472 217.646 130.105 225.348 130.843C225.348 130.843 225.627 139.013 233.265 141.28C240.904 143.551 266.343 120.312 266.324 115.89C266.305 111.468 262.708 109.05 259.812 110.041C259.812 110.041 261.085 105.035 257.789 102.553C254.493 100.071 252.328 100.749 252.328 100.749C252.328 100.749 253.699 97.4759 250.682 93.1369C247.665 88.7979 238.761 87.0767 216.972 109.201Z" fill="#2B4047"/>
<g opacity="0.4">
<path d="M182.557 20.3007C182.557 20.3007 190.094 17.2649 197.559 19.5135C205.02 21.7621 207.491 14.3534 202.565 9.84497C197.642 5.33649 187.721 5.70184 184.478 9.42689C181.235 13.1519 176.599 19.4005 182.557 20.3007Z" fill="white"/>
</g>
<path d="M225.638 131.348C225.717 131.303 225.785 131.239 225.838 131.16C225.857 131.133 227.661 128.354 231.084 125.035C234.237 121.981 239.446 117.83 246.376 115.389C246.681 115.28 246.84 114.949 246.734 114.647C246.629 114.342 246.294 114.184 245.992 114.289C238.851 116.802 233.491 121.077 230.252 124.222C226.738 127.63 224.938 130.41 224.862 130.527C224.689 130.798 224.768 131.16 225.036 131.333C225.224 131.453 225.457 131.453 225.642 131.348H225.638Z" fill="#002B34"/>
<path d="M218.738 121.977C218.798 121.943 218.855 121.894 218.904 121.834C218.93 121.8 221.676 118.384 225.77 114.587C229.529 111.103 235.231 106.58 241.039 104.806C241.348 104.711 241.521 104.387 241.427 104.079C241.333 103.77 241.009 103.596 240.7 103.691C234.674 105.532 228.817 110.173 224.968 113.743C220.81 117.596 218.022 121.069 217.996 121.103C217.796 121.355 217.838 121.721 218.086 121.92C218.278 122.075 218.538 122.086 218.742 121.969L218.738 121.977Z" fill="#002B34"/>
<g opacity="0.4">
<path d="M231.288 96.6925C230.693 96.022 221.465 85.5663 214.546 75.2499C214.229 75.5098 213.906 75.7659 213.57 76.0183C212.64 76.715 211.638 77.3591 210.583 77.9505C212.331 80.587 214.022 83.3968 215.495 85.9053C220.331 94.1539 224.448 102.35 224.489 102.433L222.467 103.446C222.425 103.363 218.335 95.2273 213.536 87.039C211.619 83.7659 209.962 81.1218 208.538 78.9862C206.998 79.6943 205.386 80.2781 203.774 80.7038C198.907 81.9806 194.776 81.6793 192.727 79.8977C190.64 78.0823 190.165 75.3026 191.491 72.6435C193.013 69.5964 196.794 66.9938 201.092 67.909C203.359 68.3911 206.35 71.8337 209.303 76.0634C210.693 75.2989 212.052 74.3911 213.292 73.344C210.09 68.3648 207.593 63.5625 207.051 60.0747C206.422 56.0333 208.158 54.4024 209.246 53.7885C211.431 52.5606 214.678 53.231 217.325 55.4608C220.821 58.4062 221.973 62.7979 220.406 67.2047C219.578 69.5324 218.154 71.7395 216.226 73.7019C223.186 84.0974 232.832 95.0239 232.975 95.1896L231.28 96.6887L231.288 96.6925ZM209.292 59.7282C209.77 62.8243 212.022 67.1708 214.96 71.7621C216.395 70.2292 217.567 68.4589 218.278 66.4476C220.113 61.2875 216.9 58.0597 215.872 57.1934C214.003 55.619 211.683 55.0164 210.358 55.7621C210.094 55.909 209.887 56.1049 209.725 56.3346C209.051 57.2838 209.145 58.7979 209.288 59.7282H209.292ZM193.518 73.6567C193.107 74.4815 192.35 76.5757 194.211 78.1915C195.631 79.4269 199.243 79.5587 203.201 78.5192C204.482 78.184 205.857 77.7056 207.243 77.0917C203.212 71.3629 201.352 70.2819 200.625 70.1275C197.864 69.5399 195.314 71.0088 193.988 72.877C193.808 73.1331 193.649 73.393 193.518 73.6604V73.6567Z" fill="white"/>
</g>
</svg>
