<svg width="613" height="390" viewBox="0 0 613 390" fill="none" xmlns="http://www.w3.org/2000/svg">
<path d="M112.78 86.5953C108.803 90.5092 106.377 90.4114 104.841 88.8533C103.306 87.2953 103.246 84.8641 107.223 80.9502C114.47 73.8185 120.749 73.1938 120.749 73.1938C120.749 73.1938 120.132 79.362 112.78 86.599V86.5953Z" fill="#94C358"/>
<path d="M142.195 213.558L141.153 213.727C141.126 213.565 138.425 197.398 127.258 175.525C116.953 155.345 97.1283 126.043 61.1931 101.058L61.7951 100.192C97.9297 125.317 117.863 154.788 128.221 175.088C139.452 197.097 142.172 213.4 142.199 213.561L142.195 213.558Z" fill="#94C358"/>
<path d="M99.4197 133.687L98.4189 133.352C110.59 96.9672 88.93 61.9713 88.708 61.6213L89.5997 61.0568C89.8217 61.4105 111.753 96.8205 99.4197 133.687Z" fill="#94C358"/>
<path d="M79.8098 120.948C69.4066 123.567 60.2338 120.338 60.1284 120.3L60.4858 119.307C60.6025 119.348 72.3564 123.473 84.1479 118.366L84.5693 119.337C82.974 120.029 81.3787 120.556 79.8098 120.951V120.948Z" fill="#94C358"/>
<path d="M59.0712 95.5146C65.7194 99.0409 66.867 101.656 65.8436 103.587C64.8202 105.521 62.0097 106.041 55.3614 102.514C43.2463 96.0941 39.2468 89.4893 39.2468 89.4893C39.2468 89.4893 46.7793 89.0001 59.0674 95.5108L59.0712 95.5146Z" fill="#94C358"/>
<path d="M62.0398 116.296C69.4443 117.651 71.3255 119.8 70.9305 121.949C70.5354 124.101 68.0146 125.441 60.6138 124.086C47.1292 121.618 41.3237 116.529 41.3237 116.529C41.3237 116.529 48.3595 113.79 62.0398 116.296Z" fill="#94C358"/>
<path d="M86.1796 101.988C88.7419 106.948 87.9254 109.236 85.984 110.241C84.0388 111.246 81.7023 110.583 79.1438 105.623C74.4784 96.5871 75.7426 90.4038 75.7426 90.4038C75.7426 90.4038 81.4465 92.8199 86.1796 101.988Z" fill="#94C358"/>
<path d="M90.7135 56.3638C94.2013 63.0325 93.667 65.84 91.7293 66.8524C89.7917 67.8648 87.1843 66.7056 83.6965 60.0331C77.3417 47.8811 77.7819 40.1736 77.7819 40.1736C77.7819 40.1736 84.2684 44.0348 90.7135 56.36V56.3638Z" fill="#94C358"/>
<path d="M168.95 248.441C168.95 248.441 44.8115 131.576 6.86717 169.232C-31.0771 206.885 111.505 227.591 146.307 262.847L168.946 248.441H168.95Z" fill="#94C358"/>
<path d="M156.353 256.611C132.759 231.822 98.8025 213.215 74.4745 201.97C48.096 189.78 27.0488 183.379 26.8381 183.315L27.2332 182.005C27.4439 182.069 48.5851 188.497 75.0464 200.728C99.4836 212.022 133.601 230.726 157.343 255.67L156.353 256.615V256.611Z" fill="#94C358"/>
<path d="M47.0013 300.233C70.7386 303.39 69.7265 339.03 95.7815 330.321C121.836 321.598 119.492 320.074 133.218 330.589C133.218 330.589 139.102 341.348 149.825 342.345C192.138 346.286 244.176 279.948 197.894 249.472C194.553 247.27 189.899 246.698 184.771 246.314C156.948 244.256 149.411 257.563 125.144 226.933C100.868 196.295 75.2573 245.118 56.6972 244.978C38.1407 244.839 21.4543 240.628 8.68075 261.319C-4.09277 282.029 23.2603 297.09 47.0013 300.233Z" fill="#83BB26"/>
<path d="M188.244 295.446L189.015 294.072C188.409 293.733 127.04 260.141 5.82861 267.134L5.91891 268.707C126.675 261.741 187.642 295.107 188.247 295.446H188.244Z" fill="#F4F4F4"/>
<path d="M109.18 254.827C123.973 239.168 125.855 227.535 125.926 227.046L124.369 226.812C124.35 226.925 122.446 238.483 108.032 253.747L109.18 254.827Z" fill="#F4F4F4"/>
<path d="M107.787 271.992C111.629 263.724 110.282 252.37 103.889 239.156C99.1035 229.259 93.1062 221.683 93.046 221.608L91.8157 222.59C92.0489 222.883 115.196 252.321 106.361 271.334L107.791 271.996L107.787 271.992Z" fill="#F4F4F4"/>
<path d="M75.7275 271.845C77.4958 270.103 78.4402 268.985 78.4816 268.933L77.2701 267.928C77.0744 268.165 57.1974 291.66 25.179 293.289L25.258 294.862C51.0571 293.549 69.1319 278.345 75.7275 271.845Z" fill="#F4F4F4"/>
<path d="M62.9841 309.431C69.6135 300.703 71.032 292.409 71.0583 286.982C71.0847 281.077 69.542 277.28 69.4781 277.122L68.022 277.724C68.0822 277.871 73.8689 292.503 61.7312 308.478L62.9879 309.431H62.9841Z" fill="#F4F4F4"/>
<g opacity="0.6">
<path d="M420.59 252.938C420.59 252.938 466.635 90.3173 510.283 104.471C553.928 118.626 455.291 206.603 443.387 254.368L420.594 252.938H420.59Z" fill="#94C358"/>
</g>
<path d="M376.893 314.101C376.893 314.101 479.284 136.916 535.89 167.106C592.5 197.296 435.734 270.306 407.888 322.851L376.893 314.101Z" fill="#83BB26"/>
<path d="M394.189 319.144C412.761 282.507 445.377 249.397 469.465 228.069C495.584 204.951 517.571 190.33 517.789 190.183L516.883 188.813C516.665 188.96 494.579 203.645 468.377 226.839C444.181 248.26 411.414 281.529 392.726 318.399L394.189 319.14V319.144Z" fill="#F4F4F4"/>
<path d="M572.492 302.788C549.063 309.495 555.38 345.221 527.858 340.324C504.579 336.173 502.514 334.186 495.019 341.307C492.449 343.749 490.282 346.575 488.499 349.635C486.358 353.304 482.121 358.78 475.244 360.459C433.236 370.714 370.994 311.67 413.054 274.111C416.09 271.398 420.688 270.129 425.794 268.981C453.497 262.772 463.061 275.048 482.938 240.609C502.822 206.159 535.86 251.5 554.518 248.603C573.18 245.705 589.347 238.983 605.281 257.917C621.215 276.866 595.917 296.093 572.488 302.784L572.492 302.788Z" fill="#94C358"/>
<g opacity="0.5">
<path d="M429.601 318.963L428.623 317.695C429.18 317.262 485.97 274.326 609.029 263.348L609.172 264.943C486.576 275.88 430.158 318.531 429.601 318.96V318.963Z" fill="#F4F4F4"/>
<path d="M503.157 266.321C485.94 252.754 482.317 241.324 482.17 240.846L483.705 240.38C483.739 240.492 487.374 251.843 504.15 265.064L503.157 266.324V266.321Z" fill="#F4F4F4"/>
<path d="M507.108 283.395C502.014 275.643 501.682 264.014 506.156 249.762C509.505 239.089 514.418 230.568 514.467 230.482L515.852 231.287C515.66 231.618 496.731 264.695 508.451 282.518L507.112 283.399L507.108 283.395Z" fill="#F4F4F4"/>
<path d="M539.359 278.48C537.32 276.99 536.203 276.004 536.154 275.959L537.222 274.766C537.456 274.977 560.956 295.672 593.43 292.552L593.584 294.147C567.416 296.661 546.963 284.039 539.359 278.48Z" fill="#F4F4F4"/>
<path d="M557.773 314.425C549.804 306.627 547.14 298.483 546.313 293.03C545.41 287.091 546.395 283.038 546.437 282.868L547.991 283.256C547.953 283.41 544.3 299.002 558.894 313.281L557.773 314.425Z" fill="#F4F4F4"/>
</g>
<path d="M601.402 225.755C609.164 224.423 611.896 226.493 612.419 229.537C612.942 232.582 611.057 235.442 603.295 236.774C589.156 239.202 581.375 234.862 581.375 234.862C581.375 234.862 587.056 228.216 601.402 225.751V225.755Z" fill="#94C358"/>
<path d="M470.025 87.9313C471.714 80.2351 474.66 78.4851 477.674 79.1475C480.688 79.8098 482.629 82.6362 480.94 90.3286C477.862 104.344 470.917 109.921 470.917 109.921C470.917 109.921 466.902 102.153 470.021 87.9313H470.025Z" fill="#94C358"/>
<path d="M458.877 371.399L101.971 367.617C94.329 367.534 88.1812 361.795 88.1812 354.738V153.573C88.1812 146.535 94.2951 140.8 101.914 140.694L454.215 135.712C461.89 135.602 468.219 141.244 468.373 148.33L472.978 358.257C473.136 365.528 466.748 371.482 458.873 371.399H458.877Z" fill="#015700"/>
<path d="M109.025 154.077H447.258C451.126 154.077 454.268 157.219 454.268 161.088V344.348C454.268 348.216 451.126 351.359 447.258 351.359H109.025C105.157 351.359 102.016 348.216 102.016 344.348V161.088C102.016 157.219 105.157 154.077 109.025 154.077Z" fill="#C1CFD1"/>
<path d="M371.878 211.183C371.878 211.183 370.437 220.599 366.595 225.397C364.063 228.559 357.084 234.825 362.047 236.913C366.012 238.581 373.646 231.159 376.126 229.311C378.605 227.464 382.341 223.971 381.514 220.99C379.798 214.822 380.362 207.066 380.362 207.066L371.878 211.183Z" fill="#002B34"/>
<path d="M391.051 203.882C391.051 203.882 392.97 213.211 391.04 219.045C389.768 222.891 385.4 231.193 390.78 231.423C395.077 231.607 399.656 221.991 401.337 219.399C403.019 216.806 405.311 212.229 403.497 209.723C399.742 204.537 397.579 197.066 397.579 197.066L391.055 203.878L391.051 203.882Z" fill="#002B34"/>
<path d="M388.357 210.475C336.891 176.134 339.43 146.05 346.564 134.285C354.849 120.62 367.965 109.819 388.064 104.998C393.422 103.715 398.523 102.97 402.786 102.541C408.957 101.924 414.277 106.854 414.111 113.056L413.648 130.574H413.686C405.1 130.394 379.045 133.013 372.22 146.9C370.802 149.787 405.446 190.488 404.152 197.793C402.688 206.053 393.384 213.829 388.353 210.472L388.357 210.475Z" fill="#FF8321"/>
<path d="M368.401 215.62C362.483 215.65 357.761 210.675 358.111 204.766C358.886 191.628 361.328 169.266 368.977 152.368C373.315 142.787 380.212 134.074 389.479 126.472C396.465 120.741 404.826 115.619 414.33 111.249C430.136 103.978 441.521 104.995 441.521 104.995L450.159 117.738C450.047 117.76 452.582 130.59 434.32 142.03C424.244 148.342 403.987 152.199 395.653 168.513C389.704 180.157 387.432 195.599 386.676 206.392C386.314 211.556 382.029 215.556 376.856 215.582L368.401 215.624V215.62Z" fill="#FF8321"/>
<path d="M380.159 59.8299C380.159 59.8299 369.545 76.1669 365.741 100.384C363.224 116.409 392.379 97.7538 392.379 97.7538L393.677 64.2782L380.159 59.8337V59.8299Z" fill="#FFAD97"/>
<path d="M433.225 50.5945C433.225 50.5945 425.139 36.7715 406.5 41.0128C387.861 45.2542 380.268 64.2971 378.932 110.026C378.932 110.026 390.126 129.841 441.047 125.976C446.69 125.547 454.772 124.801 452.018 115.653C446.894 98.6419 441.927 64.7148 433.228 50.5945H433.225Z" fill="#FFBB01"/>
<path d="M453.73 54.6326L434.556 58.238C434.556 58.238 401.029 68.1546 391.646 68.2336C382.258 68.3126 378.375 61.4444 378.375 61.4444C378.375 61.4444 385.946 48.5924 401.812 42.5295C403.302 41.9575 404.863 41.4494 406.5 41.0128C409.246 40.2865 412.042 39.6467 414.837 39.6166C446.483 39.2553 453.73 54.6326 453.73 54.6326Z" fill="#FFBB01"/>
<path d="M453.73 54.6326C454.144 56.1455 450.125 58.667 444.753 60.2664C439.38 61.8659 434.688 61.9374 434.274 60.4283C433.86 58.9154 437.879 56.3939 443.251 54.7944C448.624 53.195 453.316 53.1235 453.73 54.6364V54.6326Z" fill="#002B34"/>
<path d="M414.803 39.6204C412.757 39.786 410.774 38.8602 409.623 37.1553L406.018 31.8188L404.972 30.2683L398.821 21.1646L401.514 31.2995L403.132 37.3849L403.595 39.1198C403.971 40.5349 403.211 41.9951 401.842 42.5182L401.819 42.5257C401.296 43.9069 400.724 46.6166 404.047 47.0192C407.952 47.4897 413.359 43.4591 414.845 39.6166C414.834 39.6166 414.822 39.6166 414.811 39.6166L414.803 39.6204Z" fill="#FFAD97"/>
<path d="M410.104 17.2657C410.104 17.2657 410.029 19.027 411.654 22.3012C414.032 27.0882 408.656 30.2984 406.902 29.1355C406.684 28.9925 405.292 20.3442 405.292 20.3442L406.929 18.8953L410.1 17.2657H410.104Z" fill="#002B34"/>
<path d="M405.992 31.6457C405.999 31.7022 406.007 31.7586 406.014 31.8188C406.398 35.1796 403.151 37.4 403.151 37.4L403.125 37.3849L401.507 31.2995C402.515 30.6973 403.979 29.9936 404.969 30.2683C405.484 30.4113 405.868 30.8178 405.992 31.6457Z" fill="#002B34"/>
<path d="M389.008 24.7323C387.759 18.1539 391.066 11.997 396.397 10.9846C401.729 9.97224 407.064 14.4808 408.313 21.063C409.562 27.6415 406.255 33.7984 400.924 34.8108C395.592 35.8231 390.257 31.3108 389.008 24.7323Z" fill="#FFAD97"/>
<path d="M393.098 14.4808C393.436 14.7969 393.079 21.2135 404.709 20.5173C416.338 19.8211 406.902 7.34536 398.467 8.62492C386.288 10.4765 386.073 18.9442 387.793 21.6501C389.512 24.356 393.098 14.4808 393.098 14.4808Z" fill="#002B34"/>
<path d="M409.164 3.61959C409.164 3.61959 404.713 8.0002 409.246 10.4652C413.78 12.9303 424.83 12.283 422.919 18.263C421.008 24.2393 419.984 32.7522 425.47 32.7522C430.956 32.7522 434.214 31.7135 437.171 35.5183C440.129 39.3231 449.241 34.886 447.503 30.0199C445.765 25.1501 453.162 19.17 448.756 15.2259C444.35 11.2819 434.959 8.90718 431.656 3.29594C428.356 -2.31531 412.787 0.228755 409.164 3.62335V3.61959Z" fill="#002B34"/>
<path d="M403.087 18.805C403.087 18.805 408.656 22.813 407.997 28.1194C407.997 28.1194 410.13 24.6683 409.98 23.5581C409.829 22.4479 408.362 18.6205 408.362 18.6205L403.087 18.8012V18.805Z" fill="#002B34"/>
<path d="M407.365 23.1065C406.47 24.3598 404.961 24.7549 403.994 23.9947C403.027 23.2345 402.97 21.6012 403.866 20.348C404.761 19.0947 406.27 18.6996 407.237 19.4598C408.204 20.22 408.26 21.8533 407.365 23.1065Z" fill="#FFAD97"/>
<path d="M436.972 35.571C435.542 30.1968 432.378 29.9522 429.022 29.6963C427.694 29.5947 426.317 29.4893 425.003 29.0678C424.379 28.8683 423.942 28.5221 423.705 28.0366C423.111 26.8248 423.799 24.9167 424.601 22.7076C425.763 19.4899 427.084 15.8394 425.116 13.0093C421.309 7.52978 415.533 7.28516 415.477 7.28516C412.121 7.49591 410.379 7.11957 410.179 6.13356C409.976 5.13625 411.549 4.02605 412.128 3.82282C416.828 2.17821 422.264 1.51585 430.135 7.74053C436.343 12.648 435.918 15.4104 435.376 18.9066C435.256 19.6781 435.136 20.4759 435.079 21.3453C435.034 22.0302 435.177 22.542 435.519 22.8996C436.279 23.7012 437.969 23.6786 439.609 23.6598C441.728 23.6334 443.913 23.6071 444.504 25.2931C444.967 26.6103 444.44 28.1759 443.932 29.6887C443.413 31.2393 442.92 32.7032 443.526 33.7306C443.921 34.4005 444.764 34.8446 446.099 35.0892L446.028 35.4882C444.568 35.221 443.635 34.7129 443.18 33.9376C442.48 32.7522 442.999 31.2054 443.552 29.5646C444.038 28.1156 444.542 26.6178 444.124 25.4323C443.631 24.0248 441.679 24.0436 439.613 24.07C437.89 24.0888 436.106 24.1114 435.226 23.1818C434.808 22.7415 434.624 22.1168 434.677 21.3227C434.733 20.4383 434.861 19.6291 434.981 18.8501C435.501 15.4819 435.911 12.8249 429.887 8.06042C422.167 1.95617 416.854 2.60348 412.264 4.21045C411.707 4.40615 410.443 5.39216 410.578 6.05829C410.646 6.397 411.259 7.15344 415.473 6.88624C415.552 6.88624 421.523 7.13462 425.451 12.7835C427.539 15.7867 426.121 19.7044 424.985 22.8506C424.217 24.9732 423.555 26.806 424.074 27.8635C424.266 28.2511 424.612 28.5221 425.135 28.6877C426.403 29.0941 427.754 29.1957 429.059 29.2973C432.558 29.5646 435.866 29.8167 437.367 35.4693L436.976 35.5747L436.972 35.571Z" fill="white"/>
<path d="M402.771 16.9534C399.163 16.9534 396.845 14.4695 396.819 14.4394L397.09 14.191C397.116 14.2211 399.885 17.1754 404.035 16.4792L404.095 16.8405C403.636 16.9195 403.192 16.9534 402.767 16.9534H402.771Z" fill="white"/>
<path d="M392.225 31.9091C391.503 32.0446 390.739 31.9543 390.013 31.6307C388.839 31.1113 387.879 30.0576 387.375 28.7404C386.435 26.2791 387.353 23.6221 389.418 22.8092C390.303 22.463 391.303 22.5006 392.24 22.9108C393.414 23.4302 394.373 24.4839 394.878 25.8011C395.818 28.2624 394.9 30.9194 392.835 31.7323C392.639 31.8113 392.436 31.8678 392.229 31.9054L392.225 31.9091ZM390.069 22.8694C389.877 22.9071 389.689 22.9598 389.505 23.0313C387.556 23.7952 386.698 26.3167 387.594 28.6576C388.075 29.9183 388.989 30.9231 390.107 31.4161C390.984 31.8038 391.92 31.8376 392.744 31.514C394.693 30.75 395.551 28.2285 394.656 25.8877C394.174 24.627 393.26 23.6221 392.142 23.1291C391.461 22.828 390.743 22.7415 390.069 22.8694Z" fill="#6F4975"/>
<path d="M401.315 28.8194C400.593 28.9549 399.829 28.8645 399.103 28.5409C397.929 28.0215 396.969 26.9716 396.465 25.6506C395.524 23.1931 396.443 20.5324 398.512 19.7195C399.396 19.3732 400.397 19.4071 401.334 19.8211C402.508 20.3404 403.467 21.3942 403.971 22.7114C404.912 25.1726 403.994 27.8296 401.924 28.6425C401.729 28.7215 401.526 28.778 401.319 28.8156L401.315 28.8194ZM399.159 19.7797C398.967 19.8173 398.779 19.87 398.595 19.9415C396.646 20.7055 395.792 23.227 396.683 25.5678C397.165 26.8285 398.079 27.8334 399.197 28.3264C400.073 28.714 401.01 28.7479 401.834 28.4242C403.783 27.6603 404.637 25.1388 403.745 22.7979C403.264 21.5372 402.35 20.5324 401.232 20.0394C400.551 19.7383 399.832 19.6517 399.159 19.7797Z" fill="#6F4975"/>
<path d="M393.816 26.4635C393.779 26.471 393.741 26.4635 393.711 26.4334C393.666 26.3882 393.662 26.313 393.711 26.2678C393.756 26.2226 394.836 25.1162 397.071 25.0296C397.135 25.0296 397.191 25.0786 397.195 25.1425C397.195 25.2065 397.146 25.263 397.082 25.2667C394.949 25.3495 393.895 26.4221 393.884 26.4296C393.865 26.4484 393.843 26.4597 393.82 26.4635H393.816Z" fill="#6F4975"/>
<path d="M394.795 31.6194C394.795 31.6194 398.106 31.0699 401.183 29.2823C401.183 29.2823 402.075 32.4812 398.546 33.3769C396.492 33.9 394.795 31.6194 394.795 31.6194Z" fill="#DB6B49"/>
<path d="M394.795 31.6194C394.795 31.6194 395.72 32.1312 397.579 31.7661C399.438 31.4049 401.183 29.2823 401.183 29.2823C401.183 29.2823 397.417 31.1301 394.795 31.6194Z" fill="white"/>
<path d="M397.748 23.1893C397.681 23.1856 397.617 23.1479 397.575 23.0877C397.507 22.9823 397.538 22.8469 397.643 22.7791C397.703 22.7415 399.039 21.699 400.608 22.8732C400.706 22.9485 400.732 23.084 400.66 23.1856C400.589 23.2872 400.461 23.2872 400.348 23.2383C399.212 22.7528 397.936 23.1254 397.887 23.1592C397.846 23.1856 397.797 23.1969 397.748 23.1931V23.1893Z" fill="#060633"/>
<path d="M399.946 25.2742C400.062 25.7936 399.852 26.2866 399.472 26.3694C399.095 26.4522 398.693 26.0984 398.576 25.5791C398.459 25.0597 398.67 24.5667 399.05 24.4839C399.426 24.4011 399.829 24.7549 399.946 25.2742Z" fill="#060633"/>
<path d="M390.129 25.8237C390.065 25.8463 389.99 25.835 389.934 25.7936C389.832 25.7221 389.809 25.5829 389.877 25.4813C389.918 25.421 390.754 23.9495 392.654 24.4388C392.774 24.4689 392.849 24.5893 392.819 24.7098C392.789 24.8302 392.673 24.8791 392.548 24.8753C391.311 24.8603 390.276 25.6882 390.242 25.7409C390.212 25.7823 390.174 25.8087 390.129 25.8237Z" fill="#060633"/>
<path d="M392.951 26.9151C393.256 27.3517 393.248 27.8861 392.932 28.1081C392.616 28.3302 392.108 28.157 391.804 27.7167C391.499 27.2802 391.506 26.7458 391.822 26.5237C392.138 26.3017 392.643 26.4748 392.951 26.9151Z" fill="#060633"/>
<path d="M450.419 97.2194C442.232 110.053 426.008 118.246 408.964 117.707L410.781 104.027C423.999 101.619 434.131 93.0157 436.016 85.7598C438.386 76.6486 437.574 67.7707 436.441 61.0982C436.332 60.4659 436.584 59.8299 437.092 59.4385C438.782 58.1439 443.161 55.5133 450.983 55.3552C451.679 55.3401 452.296 55.8068 452.473 56.4805C455.746 68.8132 457.722 85.7598 450.415 97.2119L450.419 97.2194Z" fill="#FFAD97"/>
<g opacity="0.3">
<path d="M441.792 101.427C441.491 101.427 441.201 101.367 440.926 101.25C439.493 100.637 438.989 98.5704 439.801 96.6398C440.268 95.5371 441.103 94.6527 442.032 94.2764C442.676 94.0167 443.312 94.0092 443.88 94.25C445.313 94.8635 445.817 96.9296 445.005 98.8602C444.538 99.9629 443.703 100.847 442.774 101.224C442.442 101.359 442.111 101.423 441.788 101.423L441.792 101.427ZM443.018 94.7092C442.777 94.7092 442.525 94.7619 442.269 94.8635C441.491 95.1796 440.783 95.9361 440.381 96.8882C439.7 98.4989 440.057 100.196 441.171 100.67C441.581 100.847 442.055 100.836 442.537 100.64C443.315 100.324 444.023 99.5677 444.425 98.6156C445.106 97.0049 444.749 95.3076 443.635 94.8296C443.44 94.7468 443.233 94.7054 443.018 94.7054V94.7092Z" fill="#F47C53"/>
</g>
<path d="M410.778 104.027C410.778 104.027 398.535 100.132 394.644 101.976C390.754 103.817 387.176 109.112 389.828 108.483C392.481 107.855 395.653 106.112 395.653 106.112C395.653 106.112 389.057 110.15 390.667 111.287C392.281 112.42 397.985 108.852 397.985 108.852C397.985 108.852 390.517 114.283 392.387 114.862C394.257 115.442 399.9 111.272 399.9 111.272C399.9 111.272 393.154 116.605 395.344 117.226C397.534 117.847 400.89 112.785 402.504 113.918C404.118 115.05 408.23 120.259 411.929 116.161L410.781 104.027H410.778Z" fill="#FFAD97"/>
<path d="M395.758 106.237L395.555 105.992C395.626 105.932 397.338 104.509 398.7 104.9L398.614 105.205C397.41 104.863 395.777 106.221 395.758 106.237Z" fill="#F47C53"/>
<path d="M398.091 108.973L397.884 108.732C397.952 108.671 399.584 107.271 401.582 107.426L401.556 107.742C399.697 107.599 398.106 108.957 398.091 108.973Z" fill="#F47C53"/>
<path d="M400.006 111.396L399.802 111.152C399.889 111.08 401.909 109.398 403.324 109.936L403.211 110.233C401.97 109.763 400.024 111.381 400.006 111.396Z" fill="#F47C53"/>
<path d="M395.743 123.082H356.444C355.62 123.082 354.89 122.558 354.631 121.783L346.462 97.3887C346.052 96.1619 346.97 94.8936 348.276 94.8936H386.07C387.793 94.8936 389.32 95.9887 389.866 97.6108L397.556 120.586C397.966 121.813 397.048 123.082 395.743 123.082Z" fill="#002B34"/>
<path d="M393.275 123.082H353.976C353.152 123.082 352.422 122.558 352.162 121.783L343.994 97.3887C343.584 96.1619 344.502 94.8936 345.808 94.8936H383.601C385.325 94.8936 386.852 95.9887 387.394 97.6108L395.084 120.586C395.494 121.813 394.576 123.082 393.271 123.082H393.275Z" fill="#002B34"/>
<path d="M365.737 108.186C365.737 107.26 366.806 106.884 367.739 106.884C368.672 106.884 370.192 107.9 370.185 109.198C370.173 110.598 369.078 110.783 368.149 110.783C367.22 110.783 365.741 109.368 365.741 108.19L365.737 108.186Z" fill="#E3FFD2"/>
<path d="M353.957 119.634H407.734C408.99 119.634 410.006 120.654 410.006 121.907V121.922C410.006 122.562 409.487 123.078 408.851 123.078H353.957V119.63V119.634Z" fill="#002B34"/>
<path d="M390.479 107.223C390.46 107.151 388.53 99.9178 387.285 97.671C386.055 95.4543 384.538 95.0178 384.523 95.014L384.591 94.7694C384.659 94.7882 386.228 95.2398 387.507 97.5506C388.771 99.8274 390.648 106.865 390.727 107.162L390.479 107.23V107.223Z" fill="#015700"/>
<path d="M396.289 119.762C394.832 119.762 394.468 119.119 394.452 119.089L391.382 109.917L391.623 109.838L394.686 118.987C394.686 118.987 395.017 119.506 396.285 119.506V119.762H396.289Z" fill="#015700"/>
<path d="M360.067 186.642L359.751 186.619C359.759 186.503 360.579 174.742 364.213 161.446C367.57 149.158 374.086 133.009 386.062 125.84L386.224 126.115C374.342 133.228 367.863 149.301 364.518 161.532C360.891 174.798 360.075 186.529 360.067 186.646V186.642Z" fill="#002B34"/>
<path d="M386.299 208.978H385.979C386.107 190.68 392.093 176.556 392.153 176.413L392.447 176.537C392.387 176.676 386.427 190.744 386.299 208.974V208.978Z" fill="#002B34"/>
<path d="M514.113 209.821C514.113 209.821 504.737 209.388 503.243 194.997C501.708 180.203 518.669 194.997 518.669 194.997L514.113 209.821Z" fill="#FFAD97"/>
<path d="M523.678 162.635C523.106 162.861 513.613 165.431 509.411 179.751C505.208 194.071 519.317 182.781 519.317 182.781L523.678 162.635Z" fill="#FFAD97"/>
<path d="M536.18 359.921C536.18 359.921 536.052 365.065 532.568 366.518C529.088 367.97 519.001 369.28 522.767 372.588C524.93 374.489 535.123 373.262 538.001 373.262C540.88 373.262 543.581 374.515 545.718 372.588C548.07 370.469 545.718 359.921 545.718 359.921C545.718 359.921 543.235 361.215 541 361.155C537.783 361.072 536.176 359.921 536.176 359.921H536.18Z" fill="#002B34"/>
<path d="M576.164 359.92C576.164 359.92 576.036 365.069 572.552 366.518C569.071 367.97 558.984 369.28 562.75 372.588C564.914 374.485 575.106 373.258 577.985 373.258C580.863 373.258 583.564 374.511 585.701 372.584C588.053 370.466 585.701 359.917 585.701 359.917C585.701 359.917 583.218 361.211 580.983 361.151C577.766 361.068 576.156 359.917 576.156 359.917L576.164 359.92Z" fill="#002B34"/>
<path d="M510.306 218.838C510.306 218.838 509.663 240.38 516.537 281.706C521.499 311.542 527.357 341.604 530.232 356.014C531.259 361.17 535.593 364.941 540.733 365.144L543.495 365.257C549.048 365.479 553.559 360.707 553.153 355.032L546.177 257.522L544.458 225.428L510.306 218.834V218.838Z" fill="#FF4929"/>
<path d="M573.184 237.794C572.868 240.417 558.044 240.097 539.897 237.802C521.751 235.506 507.623 231.573 507.943 228.95C508.259 226.327 522.899 226.011 541.049 228.306C559.195 230.606 573.504 235.175 573.188 237.794H573.184Z" fill="#002B34"/>
<path d="M531.139 234.223L569.884 358.712C571.506 363.925 576.198 367.492 581.541 367.587L583.87 367.628C589.366 367.722 593.573 362.638 592.568 357.102L571.374 240.127C571.066 238.739 570.039 237.632 568.699 237.245C561.434 235.148 530.428 229.074 531.143 234.223H531.139Z" fill="#FF4929"/>
<path d="M567.126 166.12C567.126 166.12 561.972 151.612 543.607 152.274C525.243 152.933 511.378 177.071 507.943 228.95C507.943 228.95 538.012 222.353 573.24 237.741C573.24 237.741 575.193 187.267 567.126 166.124V166.12Z" fill="#015700"/>
<path d="M580.02 165.247L567.01 173.575C567.01 173.575 533.569 176.921 524.693 175.31C515.814 173.699 514.433 167.17 514.433 167.17C514.433 167.17 522.876 155.582 538.949 152.707C540.458 152.436 541.982 152.391 543.603 152.274C546.327 152.082 549.055 152.165 551.727 152.451C567.604 154.164 580.02 165.247 580.02 165.247Z" fill="#015700"/>
<path d="M548.457 289.865L540.123 264.529C538.249 258.832 534.397 254.078 529.272 251.139L529.596 250.575C534.859 253.593 538.818 258.474 540.74 264.326L549.074 289.661L548.453 289.865H548.457Z" fill="#002B34"/>
<path d="M531.014 149.042C530.913 149.019 528.546 148.439 527.843 146.742C527.47 145.846 527.639 144.811 528.343 143.667C528.655 143.159 528.945 142.696 529.212 142.275C531.052 139.343 531.669 138.353 531.191 136.058L531.398 136.013C531.898 138.391 531.214 139.479 529.393 142.388C529.129 142.809 528.84 143.268 528.527 143.78C527.861 144.864 527.696 145.831 528.042 146.659C528.704 148.255 531.044 148.827 531.067 148.831L531.018 149.038L531.014 149.042Z" fill="#002B34"/>
<path d="M531.293 136.039C531.293 136.039 532.106 139.723 529.668 143.577C527.226 147.435 529.882 150.25 533.189 148.767C536.496 147.284 537.753 151.499 541.982 149.169C546.207 146.84 531.297 136.035 531.297 136.035L531.293 136.039Z" fill="#002B34"/>
<path d="M550.82 152.327C548.995 152.131 547.407 150.983 546.681 149.297L544.405 144.01L543.746 142.474L539.864 133.453L540.537 142.802L540.943 148.413L541.06 150.012C541.154 151.318 540.244 152.474 538.953 152.703H538.931C538.238 153.832 537.286 156.117 540.138 157.024C543.491 158.089 548.909 155.451 550.854 152.327C550.842 152.327 550.835 152.327 550.824 152.327H550.82Z" fill="#FFAD97"/>
<path d="M544.416 143.859C544.416 143.912 544.412 143.961 544.408 144.014C544.186 147.028 540.962 148.436 540.962 148.436L540.943 148.421L540.537 142.809C541.523 142.448 542.926 142.075 543.746 142.482C544.175 142.693 544.446 143.114 544.416 143.863V143.859Z" fill="#002B34"/>
<path d="M530.657 134.951C530.657 128.968 534.589 124.113 539.438 124.113C544.288 124.113 548.22 128.964 548.22 134.951C548.22 140.939 544.288 145.79 539.438 145.79C534.589 145.79 530.657 140.939 530.657 134.951Z" fill="#FFAD97"/>
<path d="M547.046 136.585C546.053 137.533 544.661 137.631 543.938 136.803C543.216 135.971 543.438 134.53 544.435 133.578C545.428 132.629 546.82 132.531 547.543 133.359C548.265 134.191 548.043 135.633 547.046 136.581V136.585Z" fill="#FFAD97"/>
<path d="M534.709 141.963C534.709 141.963 537.708 142.03 540.71 140.977C540.71 140.977 540.958 143.935 537.711 144.134C535.823 144.251 534.713 141.963 534.713 141.963H534.709Z" fill="#DB6B49"/>
<path d="M534.709 141.963C534.709 141.963 535.435 142.565 537.128 142.557C538.821 142.55 540.71 140.977 540.71 140.977C540.71 140.977 537.094 141.97 534.709 141.963Z" fill="white"/>
<path d="M538.588 135.057C538.532 135.042 538.479 135 538.456 134.936C538.415 134.835 538.464 134.718 538.565 134.677C538.626 134.654 539.969 133.962 541.15 135.252C541.226 135.335 541.222 135.459 541.143 135.535C541.064 135.61 540.951 135.591 540.861 135.527C539.942 134.91 538.765 135.027 538.712 135.045C538.671 135.06 538.626 135.064 538.584 135.053L538.588 135.057Z" fill="#060633"/>
<path d="M540.168 137.251C540.183 137.729 539.916 138.124 539.57 138.135C539.224 138.146 538.93 137.77 538.915 137.292C538.9 136.814 539.167 136.419 539.514 136.408C539.86 136.396 540.153 136.773 540.168 137.251Z" fill="#060633"/>
<path d="M531.458 136.099C531.398 136.107 531.334 136.088 531.289 136.039C531.214 135.96 531.214 135.836 531.289 135.757C531.334 135.712 532.316 134.56 533.9 135.305C533.998 135.354 534.047 135.467 534.002 135.569C533.956 135.67 533.847 135.693 533.738 135.67C532.655 135.448 531.609 136.005 531.567 136.043C531.533 136.073 531.496 136.092 531.454 136.099H531.458Z" fill="#060633"/>
<path d="M533.757 137.526C533.953 137.962 533.855 138.429 533.539 138.568C533.223 138.711 532.809 138.474 532.614 138.037C532.418 137.601 532.516 137.134 532.832 136.995C533.148 136.852 533.562 137.089 533.757 137.526Z" fill="#060633"/>
<path d="M535.71 126.077C535.71 126.077 535.898 129.837 540.593 130.48C545.289 131.12 548.525 133.107 547.896 136.491C547.268 139.874 539.698 146.893 545.259 149.61C550.82 152.327 549.638 147.258 555.666 148.436C561.697 149.61 562.784 141.556 558.631 136.882C554.481 132.208 556.159 119.841 540.593 120.391C525.024 120.94 530.728 133.363 530.728 133.363C530.728 133.363 535.717 130.232 535.71 126.081V126.077Z" fill="#002B34"/>
<path d="M546.862 150.306C545.692 149.832 544.969 149.128 544.721 148.214C544.036 145.692 546.975 141.884 549.567 138.523C550.248 137.638 550.895 136.803 551.463 136.005C553.047 133.792 553.186 131.256 551.828 129.223C550.342 126.995 547.505 126.051 544.431 126.766C541.369 127.477 539.262 126.834 538.031 126.171C536.696 125.452 536.097 124.576 536.075 124.538L536.18 124.466C536.203 124.5 538.626 127.981 544.405 126.642C547.531 125.915 550.417 126.879 551.933 129.152C553.299 131.199 553.16 133.852 551.565 136.077C550.993 136.874 550.346 137.714 549.665 138.598C547.091 141.936 544.172 145.718 544.841 148.18C545.082 149.068 545.759 149.726 546.907 150.189L546.858 150.306H546.862Z" fill="white"/>
<path d="M531.131 143.031C529.81 142.546 528.652 141.089 528.031 139.132C527.015 135.945 527.73 132.404 529.619 131.233C530.322 130.785 531.112 130.717 531.899 131.007C533.219 131.493 534.378 132.949 534.999 134.899C536.011 138.079 535.3 141.628 533.411 142.802C532.986 143.069 532.534 143.197 532.068 143.197C531.759 143.197 531.443 143.141 531.131 143.028V143.031ZM534.626 135.027C534.043 133.186 532.971 131.824 531.763 131.376C531.082 131.131 530.416 131.195 529.822 131.56C528.072 132.644 527.436 135.99 528.399 139.012C528.983 140.849 530.055 142.215 531.263 142.663C531.936 142.9 532.61 142.843 533.2 142.474C534.95 141.383 535.586 138.041 534.623 135.023L534.626 135.027Z" fill="#6F4975"/>
<g opacity="0.3">
<path d="M545.161 132.833C545.865 135.926 544.74 139.249 542.648 140.254C540.552 141.259 538.283 139.565 537.58 136.468C536.876 133.374 538.001 130.051 540.097 129.047C542.193 128.042 544.457 129.739 545.165 132.833H545.161Z" fill="white"/>
</g>
<g opacity="0.3">
<path d="M535.086 135.162C535.793 138.271 534.852 141.643 532.986 142.693C531.12 143.743 529.032 142.072 528.328 138.963C527.621 135.855 528.561 132.483 530.428 131.433C532.294 130.383 534.382 132.054 535.086 135.162Z" fill="white"/>
</g>
<path d="M539.724 140.295C538.374 139.641 537.343 138.162 536.899 136.235C536.131 132.93 537.38 129.359 539.69 128.275C540.62 127.838 541.602 127.846 542.542 128.298C543.889 128.952 544.917 130.431 545.361 132.355C546.132 135.666 544.879 139.234 542.569 140.314C542.11 140.536 541.639 140.642 541.169 140.642C540.699 140.642 540.198 140.521 539.724 140.295ZM539.852 128.625C537.708 129.637 536.553 133.009 537.279 136.144C537.693 137.928 538.675 139.355 539.901 139.945C540.721 140.329 541.594 140.337 542.407 139.964C544.555 138.952 545.71 135.58 544.984 132.445C544.57 130.665 543.596 129.246 542.373 128.648C541.955 128.444 541.523 128.343 541.09 128.343C540.657 128.343 540.259 128.437 539.856 128.625H539.852Z" fill="#6F4975"/>
<path d="M534.671 136.317C534.754 136.317 534.833 136.287 534.905 136.231C534.942 136.197 535.89 135.456 537.523 135.768C537.715 135.794 537.915 135.678 537.952 135.478C537.99 135.283 537.862 135.087 537.663 135.053C535.691 134.639 534.491 135.625 534.438 135.663C534.288 135.794 534.261 136.024 534.393 136.178C534.465 136.269 534.57 136.314 534.671 136.314V136.317Z" fill="#6F4975"/>
<path d="M580.208 165.537C580.66 166.846 577.258 169.3 572.608 171.012C567.961 172.728 563.826 173.056 563.375 171.746C562.923 170.437 566.325 167.983 570.975 166.267C575.622 164.551 579.757 164.223 580.208 165.533V165.537Z" fill="#002B34"/>
<path d="M548.299 210.863L548.145 201.353C548.122 200.055 549.123 198.963 550.421 198.873C557.013 198.402 561.626 196.355 564.15 192.784C567.661 187.82 567.288 180.109 566.31 174.761C565.81 172.025 566.713 170.196 570.016 168.442C570.016 168.442 572.86 166.876 576.363 166.282C577.767 166.041 579.163 166.605 579.524 167.983C580.092 170.139 580.826 173.496 581.175 177.444C582.007 186.822 580.197 194.978 575.946 201.033C570.727 208.466 562.314 212.575 550.914 213.275C549.514 213.362 548.322 212.271 548.299 210.867V210.863Z" fill="#FFAD97"/>
<g opacity="0.5">
<path d="M572.526 198.542C572.074 198.542 571.653 198.414 571.314 198.139C570.279 197.304 570.389 195.437 571.566 193.98C572.74 192.52 574.538 192.016 575.573 192.848C576.608 193.683 576.499 195.546 575.321 197.006C574.531 197.988 573.455 198.542 572.522 198.542H572.526ZM574.362 193.085C573.624 193.085 572.721 193.563 572.063 194.383C571.126 195.546 570.968 197.04 571.717 197.646C572.465 198.248 573.891 197.774 574.828 196.611C575.765 195.444 575.923 193.95 575.174 193.348C574.952 193.171 574.67 193.085 574.362 193.085Z" fill="#F47C53"/>
</g>
<path d="M558.593 234.953C558.593 234.953 522.376 228.032 510.629 231.295L516.262 239.642L537.196 240.827L558.593 234.953Z" fill="#FF4929"/>
<path d="M543.968 199.78L512.747 199.791C512.093 199.791 511.513 199.377 511.306 198.76L504.812 179.382C504.485 178.407 505.215 177.399 506.253 177.399L536.278 177.388C537.647 177.388 538.863 178.257 539.292 179.548L545.409 197.797C545.737 198.771 545.007 199.78 543.968 199.78Z" fill="#002B34"/>
<path d="M542.008 199.784L510.787 199.795C510.133 199.795 509.553 199.381 509.346 198.764L502.852 179.386C502.525 178.411 503.255 177.403 504.29 177.403L534.314 177.391C535.684 177.391 536.899 178.261 537.328 179.552L543.446 197.8C543.773 198.775 543.043 199.784 542.005 199.784H542.008Z" fill="#002B34"/>
<path d="M520.129 187.959C520.129 187.225 520.976 186.924 521.717 186.924C522.458 186.924 523.666 187.729 523.662 188.761C523.655 189.875 522.786 190.018 522.045 190.018C521.303 190.018 520.129 188.896 520.129 187.959Z" fill="#E3FFD2"/>
<path d="M539.785 187.184C539.769 187.127 538.234 181.381 537.241 179.597C536.267 177.843 535.059 177.489 535.048 177.485L535.1 177.29C535.153 177.305 536.398 177.666 537.418 179.499C538.423 181.305 539.916 186.898 539.98 187.135L539.785 187.187V187.184Z" fill="#015700"/>
<path d="M542.938 196.596L540.503 189.329L540.695 189.261L543.13 196.528L542.938 196.596Z" fill="#015700"/>
<path d="M503.052 192.859C503.052 192.859 502.536 196.927 505.975 197.311C510.358 197.804 516.367 193.879 513.594 193.525C511.137 193.213 507.521 193.672 507.521 193.672C507.521 193.672 516.694 192.366 515.84 190.416C514.986 188.463 507.111 189.701 507.111 189.701C507.111 189.701 515.953 187.526 514.584 185.979C513.214 184.433 506.058 185.509 506.058 185.509C506.058 185.509 514.794 183.883 513.165 182.126C511.536 180.368 507.153 182.193 505.144 182.513C503.244 182.814 502.781 184.226 503.134 186.171C503.134 186.171 502.438 188.358 502.969 189.555C503.172 190.014 502.8 190.563 502.8 190.925C502.8 191.617 503.048 192.859 503.048 192.859H503.052Z" fill="#FFAD97"/>
<path d="M552.837 198.267C552.837 198.267 550.523 191.259 546.561 189.543C542.599 187.827 536.24 188.633 538.472 190.221C540.703 191.805 544.111 193.043 544.111 193.043C544.111 193.043 536.703 190.74 536.914 192.708C537.125 194.673 543.588 196.615 543.588 196.615C543.588 196.615 534.555 194.579 535.356 196.37C536.158 198.162 543.032 199.659 543.032 199.659C543.032 199.659 534.551 198.101 535.529 200.16C536.508 202.219 542.546 201.402 542.761 203.37C542.971 205.335 544.48 213.076 550.019 213.151L552.84 198.263L552.837 198.267Z" fill="#FFAD97"/>
<path d="M546.749 194.673C546.211 193.54 544.104 193.205 544.081 193.201L544.13 192.885C544.224 192.9 546.425 193.25 547.035 194.534L546.745 194.669L546.749 194.673Z" fill="#F47C53"/>
<path d="M546.787 198.572C545.665 197.074 543.588 196.777 543.566 196.773L543.607 196.457C543.698 196.468 545.838 196.773 547.039 198.384L546.783 198.576L546.787 198.572Z" fill="#F47C53"/>
<path d="M546.004 201.466C545.533 200.216 543.031 199.821 543.005 199.817L543.054 199.501C543.163 199.516 545.77 199.93 546.305 201.353L546.007 201.466H546.004Z" fill="#F47C53"/>
<path d="M506.48 197.541C505.772 197.541 505.11 197.435 504.73 197.123L504.933 196.878C505.738 197.548 508.357 197.081 509.298 196.848L509.373 197.157C509.279 197.179 507.796 197.544 506.476 197.544L506.48 197.541Z" fill="#F47C53"/>
<path d="M301.463 227.445L163.468 233.534C152.267 234.027 142.748 226.545 142.282 216.873L135.69 80.7319C135.223 71.09 143.93 62.9611 155.1 62.6035L304.334 57.8466C315.998 57.474 325.592 65.6971 325.242 75.7642L320.595 210.573C320.283 219.639 311.957 226.982 301.46 227.445H301.463Z" fill="#54A233"/>
<path d="M225.586 150.201L161.609 152.432C157.696 152.568 154.449 149.433 154.449 145.515V79.0459C154.449 75.1319 157.689 71.997 161.598 72.1287L225.575 74.2663C229.303 74.3905 232.26 77.4502 232.26 81.1835V143.284C232.26 147.013 229.307 150.069 225.582 150.201H225.586Z" fill="#E3FFD2"/>
<path d="M173.814 92.1162C173.814 88.1834 177.02 85.3646 180.937 84.9921C186.942 84.4238 188.435 89.0678 188.435 93.0006C188.435 96.9334 185.004 99.5301 179.913 99.5301C175.982 99.5301 173.814 96.049 173.814 92.1162Z" fill="#FF4929"/>
<path d="M167.874 118.976L161.801 132.313C159.988 136.291 162.651 140.958 166.734 140.958H219.976C223.739 140.958 226.395 136.942 225.191 133.062L213.17 94.2086C211.616 89.1807 205.261 88.6764 203.049 93.3995L190.366 120.489C188.736 123.966 184.534 124.847 181.836 122.276L176.429 117.128C173.709 114.539 169.476 115.453 167.87 118.976H167.874Z" fill="#FF4929"/>
<path d="M304.379 94.5624H247.585C246.336 94.5624 244.413 93.407 244.244 92.3119C243.905 90.0614 246.328 89.4141 247.581 89.4141L304.376 90.5356C305.625 90.5356 306.648 91.4425 306.648 92.549C306.648 93.6554 305.625 94.5624 304.376 94.5624H304.379Z" fill="#E3FFD2"/>
<path d="M289.627 85.105H246.761C245.817 85.105 244.365 84.1792 244.24 83.2948C243.985 81.4846 245.813 80.969 246.757 80.969L289.627 81.8684C290.571 81.8684 291.342 82.5948 291.342 83.4867C291.342 84.3786 290.571 85.105 289.627 85.105Z" fill="#E3FFD2"/>
<path d="M289.627 105.457H246.761C245.817 105.457 244.365 104.532 244.24 103.647C243.985 101.837 245.813 101.322 246.757 101.322L289.627 102.221C290.571 102.221 291.342 102.951 291.342 103.839C291.342 104.731 290.571 105.457 289.627 105.457Z" fill="#E3FFD2"/>
<path d="M304.379 150.411H247.585C246.336 150.411 244.413 149.256 244.244 148.161C243.905 145.91 246.328 145.263 247.581 145.263L304.376 146.385C305.625 146.385 306.648 147.292 306.648 148.398C306.648 149.504 305.625 150.411 304.376 150.411H304.379Z" fill="#E3FFD2"/>
<path d="M289.627 140.958H246.761C245.817 140.958 244.365 140.032 244.24 139.148C243.985 137.337 245.813 136.822 246.757 136.822L289.627 137.721C290.571 137.721 291.342 138.448 291.342 139.339C291.342 140.228 290.571 140.958 289.627 140.958Z" fill="#E3FFD2"/>
<path d="M224.468 184.019H159.57C158.14 184.019 155.943 182.89 155.755 181.817C155.367 179.616 158.136 178.983 159.566 178.983L224.468 180.078C225.898 180.078 227.065 180.967 227.065 182.05C227.065 183.134 225.894 184.019 224.468 184.019Z" fill="#E3FFD2"/>
<path d="M304.297 184.019H239.398C237.968 184.019 235.771 182.89 235.583 181.817C235.195 179.616 237.965 178.983 239.394 178.983L304.297 180.078C305.726 180.078 306.893 180.967 306.893 182.05C306.893 183.134 305.723 184.019 304.297 184.019Z" fill="#E3FFD2"/>
<path d="M224.468 205.451H159.57C158.14 205.451 155.943 204.322 155.755 203.25C155.367 201.048 158.136 200.416 159.566 200.416L224.468 201.511C225.898 201.511 227.065 202.399 227.065 203.479C227.065 204.563 225.894 205.451 224.468 205.451Z" fill="#E3FFD2"/>
<path d="M304.297 205.451H239.398C237.968 205.451 235.771 204.322 235.583 203.25C235.195 201.048 237.965 200.416 239.394 200.416L304.297 201.511C305.726 201.511 306.893 202.399 306.893 203.479C306.893 204.563 305.723 205.451 304.297 205.451Z" fill="#E3FFD2"/>
<path d="M207.609 172.251H158.626C157.546 172.251 155.886 171.344 155.744 170.482C155.45 168.713 157.542 168.205 158.622 168.205L207.609 169.085C208.689 169.085 209.569 169.797 209.569 170.67C209.569 171.539 208.685 172.254 207.609 172.254V172.251Z" fill="#E3FFD2"/>
<path d="M307.073 172.251H279.374C278.765 172.251 277.828 171.344 277.745 170.482C277.579 168.713 278.761 168.205 279.37 168.205L307.07 169.085C307.679 169.085 308.179 169.797 308.179 170.67C308.179 171.539 307.679 172.254 307.07 172.254L307.073 172.251Z" fill="#E3FFD2"/>
<path d="M269.261 172.251H220.277C219.197 172.251 217.542 171.344 217.395 170.482C217.102 168.713 219.194 168.205 220.273 168.205L269.261 169.085C270.34 169.085 271.221 169.797 271.221 170.67C271.221 171.539 270.34 172.254 269.261 172.254V172.251Z" fill="#E3FFD2"/>
<path d="M207.609 193.42H158.626C157.546 193.42 155.886 192.513 155.744 191.651C155.45 189.882 157.542 189.374 158.622 189.374L207.609 190.255C208.689 190.255 209.569 190.966 209.569 191.839C209.569 192.708 208.685 193.42 207.609 193.42Z" fill="#E3FFD2"/>
<path d="M307.073 193.42H279.374C278.765 193.42 277.828 192.513 277.745 191.651C277.579 189.882 278.761 189.374 279.37 189.374L307.07 190.255C307.679 190.255 308.179 190.966 308.179 191.839C308.179 192.708 307.679 193.42 307.07 193.42H307.073Z" fill="#E3FFD2"/>
<path d="M269.261 193.42H220.277C219.197 193.42 217.542 192.513 217.395 191.651C217.102 189.882 219.194 189.374 220.273 189.374L269.261 190.255C270.34 190.255 271.221 190.966 271.221 191.839C271.221 192.708 270.34 193.42 269.261 193.42Z" fill="#E3FFD2"/>
<path d="M431.275 331.83L360.365 336.531C355.199 336.873 350.834 333.061 350.958 328.319L352.998 251.086C353.114 246.634 357.163 243.116 362.024 243.244L430.895 245.069C435.64 245.193 439.417 248.757 439.417 253.104V323.807C439.417 328.022 435.866 331.522 431.275 331.827V331.83Z" fill="#94C358"/>
<path d="M412.512 325.387H366.298C365.282 325.387 363.717 324.326 363.582 323.318C363.303 321.248 365.278 320.657 366.294 320.657L412.512 321.684C413.528 321.684 414.363 322.516 414.363 323.536C414.363 324.552 413.532 325.387 412.512 325.387Z" fill="#94C358"/>
<path d="M400.506 316.702H365.625C364.857 316.702 363.676 315.851 363.574 315.038C363.363 313.375 364.853 312.9 365.625 312.9L400.51 313.728C401.278 313.728 401.906 314.398 401.906 315.215C401.906 316.032 401.278 316.702 400.51 316.702H400.506Z" fill="#94C358"/>
<path d="M324.96 326.979L254.049 331.424C248.883 331.748 244.515 328.146 244.643 323.66L246.682 250.657C246.799 246.446 250.847 243.123 255.708 243.247L324.576 244.975C329.321 245.095 333.098 248.46 333.098 252.569V319.4C333.098 323.385 329.546 326.69 324.956 326.979H324.96Z" fill="#94C358"/>
<path d="M306.197 310.763H259.982C258.966 310.763 257.401 309.702 257.266 308.693C256.987 306.623 258.963 306.032 259.979 306.032L306.197 307.06C307.212 307.06 308.048 307.891 308.048 308.911C308.048 309.927 307.216 310.759 306.197 310.759V310.763Z" fill="#E3FFD2"/>
<path d="M306.197 319.908H259.982C258.966 319.908 257.401 318.847 257.266 317.838C256.987 315.768 258.963 315.177 259.979 315.177L306.197 316.205C307.212 316.205 308.048 317.036 308.048 318.056C308.048 319.072 307.216 319.908 306.197 319.908Z" fill="#E3FFD2"/>
<path d="M294.194 302.081H259.313C258.545 302.081 257.364 301.23 257.262 300.417C257.051 298.754 258.541 298.28 259.313 298.28L294.198 299.108C294.966 299.108 295.594 299.777 295.594 300.594C295.594 301.411 294.966 302.081 294.198 302.081H294.194Z" fill="#E3FFD2"/>
<path d="M218.449 331.853L147.538 336.535C142.372 336.877 138.008 333.08 138.132 328.357L140.171 251.455C140.288 247.022 144.336 243.518 149.197 243.646L218.069 245.464C222.813 245.588 226.591 249.133 226.591 253.465V323.867C226.591 328.063 223.039 331.548 218.449 331.853Z" fill="#83BB26"/>
<path d="M205.916 276.286H159.702C158.686 276.286 157.121 275.319 156.985 274.401C156.707 272.515 158.682 271.973 159.698 271.973L205.916 272.91C206.932 272.91 207.767 273.671 207.767 274.596C207.767 275.526 206.936 276.282 205.916 276.282V276.286Z" fill="#E3FFD2"/>
<path d="M205.916 284.622H159.702C158.686 284.622 157.121 283.655 156.985 282.737C156.707 280.851 158.682 280.313 159.698 280.313L205.916 281.25C206.932 281.25 207.767 282.01 207.767 282.936C207.767 283.866 206.936 284.622 205.916 284.622Z" fill="#E3FFD2"/>
<path d="M193.91 268.364H159.028C158.261 268.364 157.079 267.589 156.978 266.848C156.767 265.331 158.257 264.898 159.028 264.898L193.914 265.651C194.681 265.651 195.31 266.261 195.31 267.006C195.31 267.751 194.681 268.361 193.914 268.361L193.91 268.364Z" fill="#E3FFD2"/>
<path d="M205.916 303.33H159.702C158.686 303.33 157.121 302.363 156.985 301.445C156.707 299.559 158.682 299.017 159.698 299.017L205.916 299.954C206.932 299.954 207.767 300.715 207.767 301.64C207.767 302.57 206.936 303.326 205.916 303.326V303.33Z" fill="#E3FFD2"/>
<path d="M205.916 311.666H159.702C158.686 311.666 157.121 310.699 156.985 309.781C156.707 307.895 158.682 307.353 159.698 307.353L205.916 308.29C206.932 308.29 207.767 309.05 207.767 309.976C207.767 310.906 206.936 311.662 205.916 311.662V311.666Z" fill="#E3FFD2"/>
<path d="M193.91 295.408H159.028C158.261 295.408 157.079 294.633 156.978 293.891C156.767 292.375 158.257 291.942 159.028 291.942L193.914 292.695C194.681 292.695 195.31 293.304 195.31 294.05C195.31 294.795 194.681 295.404 193.914 295.404L193.91 295.408Z" fill="#E3FFD2"/>
<path d="M211.737 349.059L195.393 350.693C194.031 350.828 192.981 352.492 192.988 354.494L192.996 356.172C193.003 358.272 194.17 359.969 195.596 359.962L211.774 359.902L211.733 349.059H211.737Z" fill="#002B34"/>
<path d="M500.418 348.615C500.418 348.615 504.564 349.296 504.421 350.2C504.188 351.656 500.429 351.814 500.429 351.814L500.418 348.619V348.615Z" fill="#002B34"/>
<path d="M223.49 351.517C223.321 351.517 223.148 351.498 222.975 351.46C221.714 351.178 220.921 349.925 221.203 348.664L223.344 339.101C223.359 339.037 223.374 338.977 223.392 338.917C224.288 336.045 227.012 334.119 230.018 334.22L312.393 337.141C313.684 337.186 314.696 338.27 314.651 339.564C314.606 340.855 313.522 341.86 312.228 341.822L229.853 338.902C228.976 338.876 228.178 339.417 227.885 340.242L225.77 349.692C225.526 350.779 224.559 351.521 223.49 351.521V351.517Z" fill="#002B34"/>
<path d="M476.794 362.777L214.886 361.979C212.387 361.964 210.371 359.939 210.363 357.44L210.341 351.287C210.333 348.807 212.308 346.775 214.784 346.715L476.244 340.776L476.797 362.773L476.794 362.777Z" fill="#FFBB01"/>
<path d="M252.093 345.823C252.093 345.823 249.474 352.571 252.153 362.216L268.835 362.325C268.835 362.325 264.482 353.342 268.771 345.424L252.089 345.823H252.093Z" fill="#002B34"/>
<path d="M500.418 348.634L500.429 351.554C500.429 352.371 499.959 353.109 499.218 353.447L480.12 362.16C477.324 363.436 473.987 362.668 472.113 360.233C470.744 358.453 469.679 355.841 469.954 352.078C470.307 347.268 471.455 344.442 472.711 342.786C474.04 341.028 476.354 340.324 478.46 340.972L499.523 347.426C500.053 347.588 500.414 348.077 500.418 348.63V348.634Z" fill="#C1CFD1"/>
<path d="M215.42 358.509C215.22 358.509 215.062 358.347 215.059 358.152C215.059 357.952 215.217 357.79 215.416 357.79L243.258 357.685C243.458 357.685 243.619 357.847 243.619 358.043C243.619 358.242 243.461 358.404 243.262 358.404L215.42 358.509Z" fill="#002B34"/>
<path d="M274.219 358.287C274.02 358.287 273.862 358.125 273.858 357.93C273.858 357.73 274.02 357.568 274.216 357.568L462.5 356.861C462.699 356.861 462.857 357.023 462.861 357.218C462.861 357.418 462.699 357.58 462.504 357.58L274.219 358.287Z" fill="#002B34"/>
<path d="M422.046 192.245C422.046 189.555 424.228 187.372 426.918 187.372C429.609 187.372 431.791 189.555 431.791 192.245C431.791 194.936 429.609 197.119 426.918 197.119C424.228 197.119 422.046 194.936 422.046 192.245Z" fill="#54A233"/>
<path d="M418.028 187.963C417.584 187.963 417.132 187.839 416.73 187.579C415.62 186.86 415.304 185.377 416.023 184.267C418.427 180.553 422.501 178.336 426.919 178.336C431.05 178.336 434.974 180.331 437.408 183.676C438.187 184.745 437.954 186.243 436.885 187.022C435.817 187.801 434.319 187.568 433.54 186.499C432.002 184.387 429.526 183.127 426.919 183.127C424.131 183.127 421.557 184.527 420.037 186.871C419.578 187.579 418.811 187.963 418.028 187.963Z" fill="#54A233"/>
<path d="M410.921 183.063C410.477 183.063 410.025 182.939 409.623 182.679C408.513 181.96 408.197 180.477 408.915 179.367C412.919 173.184 419.699 169.496 427.054 169.496C433.932 169.496 440.46 172.819 444.516 178.385C445.295 179.454 445.061 180.952 443.993 181.731C442.924 182.51 441.427 182.276 440.648 181.207C437.487 176.876 432.408 174.286 427.054 174.286C421.328 174.286 416.049 177.162 412.934 181.975C412.475 182.683 411.707 183.067 410.924 183.067L410.921 183.063Z" fill="#54A233"/>
<path d="M506.235 374.745H62.5853C59.3496 374.745 56.5164 373.499 55.6849 371.711L53.1754 366.318C51.9676 363.718 55.4103 361.174 60.1171 361.189L508.327 362.675C513.094 362.69 516.495 365.321 515.125 367.929L513.075 371.839C512.168 373.567 509.388 374.748 506.235 374.748V374.745Z" fill="#015700"/>
<path d="M134.113 300.94C135.329 303.108 147.553 322.046 144.994 340.562L131.694 335.752L125.618 310.789L134.117 300.94H134.113Z" fill="#FFAD97"/>
<path d="M80.9987 293.18C80.9987 293.18 89.1707 278.518 109.063 282.571C128.955 286.624 139.813 315.106 134.418 371.512C134.418 371.512 102.817 358.946 61.7236 369.077C61.7236 369.077 68.4885 314.447 80.9987 293.18Z" fill="#FFBB01"/>
<path d="M65.8247 287.257L79.806 301.219C79.806 301.219 115.655 310.906 125.61 310.789C135.565 310.673 139.486 303.394 139.486 303.394C139.486 303.394 131.084 290.083 114.078 284.061C112.479 283.493 110.809 282.993 109.063 282.571C106.128 281.867 103.141 281.461 100.18 281.284C82.5789 280.238 65.8247 287.253 65.8247 287.253V287.257Z" fill="#FFBB01"/>
<path d="M65.8249 287.257C63.59 289.688 67.0364 292.341 70.8967 296.198C74.7569 300.052 78.7451 302.303 79.8061 301.219C80.8671 300.135 78.5946 296.134 74.7344 292.277C70.8741 288.423 66.852 286.139 65.8249 287.257Z" fill="#002B34"/>
<path d="M77.9473 301.275C77.9473 301.275 78.1543 298.487 74.6514 294.926C72.5407 292.781 69.8693 291.381 68.0784 290.606C67.0136 290.143 65.7833 290.662 65.3619 291.754L64.2407 294.644L69.4592 298.005L77.9473 301.275Z" fill="#FFAD97"/>
<path d="M102.655 352.992C102.655 352.992 59.519 329.61 44.0553 355.118C32.6099 373.999 49.8156 391.586 113.631 389.798C113.631 389.798 119.936 386.844 118.401 371.516C117.792 365.441 102.652 352.992 102.652 352.992H102.655Z" fill="#2B4047"/>
<path d="M102.656 352.992C102.656 352.992 160.108 329.452 171.475 344.167C184.538 361.08 172.009 389.794 111.452 379.532L104.07 371.516L102.656 352.992Z" fill="#2B4047"/>
<path d="M118.77 376.099C118.77 376.099 130.498 376.562 136.476 379.498C142.455 382.43 139.264 389.591 127.123 389.399C114.981 389.207 115.903 387.401 115.903 387.401C115.903 387.401 119.27 383.265 118.77 376.099Z" fill="#002B34"/>
<path d="M113.706 389.892L113.567 389.697C120.268 384.913 118.465 372.637 118.3 371.602L74.7532 355.751L74.8359 355.525L118.514 371.425L118.526 371.493C118.548 371.625 120.791 384.838 113.706 389.892Z" fill="#002B34"/>
<path d="M105.217 354.114C108.724 354.114 111.606 353.225 113.939 351.464C118.348 348.137 119.169 342.831 118.529 339.297L114.308 336.843C114.097 335.684 105.955 339.99 105.966 339.986C105.929 339.997 102.08 341.111 88.7304 334.288C79.4372 329.539 74.7567 322.798 74.4143 313.68C74.1547 306.808 77.2211 302.946 77.9435 301.272C78.0413 301.05 73.4549 296.451 73.5828 295.98L70.1439 294.234C70.253 293.839 66.8367 292.492 66.8856 292.379L64.2331 294.64C62.9238 297.67 60.1396 304.629 60.497 314.21C60.8695 324.168 64.9818 337.908 82.4396 346.835C91.9624 351.701 99.4346 354.11 105.21 354.11L105.217 354.114Z" fill="#FFAD97"/>
<path d="M108.051 354.671H145.28C146.059 354.671 146.751 354.174 146.996 353.44L154.731 330.329C155.123 329.166 154.25 327.965 153.016 327.965H117.216C115.583 327.965 114.135 329.004 113.623 330.54L106.335 352.303C105.944 353.466 106.817 354.667 108.051 354.667V354.671Z" fill="#004600"/>
<path d="M110.387 354.671H147.617C148.396 354.671 149.088 354.174 149.332 353.44L157.068 330.329C157.455 329.166 156.586 327.965 155.352 327.965H119.553C117.92 327.965 116.471 329.004 115.959 330.54L108.675 352.303C108.284 353.466 109.157 354.667 110.391 354.667L110.387 354.671Z" fill="#004600"/>
<path d="M136.473 340.562C136.473 339.685 135.46 339.327 134.576 339.327C133.692 339.327 132.251 340.291 132.259 341.521C132.27 342.846 133.305 343.019 134.189 343.019C135.073 343.019 136.473 341.679 136.473 340.562Z" fill="#E3FFD2"/>
<path d="M147.635 354.674H95.6345C95.0288 354.674 94.5397 354.185 94.5397 353.579V353.564C94.5397 352.375 95.5066 351.408 96.6956 351.408H147.639V354.674H147.635Z" fill="#004600"/>
<path d="M113.036 339.651L112.803 339.587C112.878 339.305 114.654 332.636 115.854 330.483C117.069 328.297 118.556 327.868 118.619 327.849L118.683 328.082C118.683 328.082 117.227 328.511 116.069 330.6C114.887 332.73 113.059 339.579 113.04 339.651H113.036Z" fill="#E3FFD2"/>
<path d="M107.531 351.528V351.287C108.751 351.287 109.055 350.783 109.055 350.775L111.949 342.127L112.178 342.202L109.277 350.87C109.255 350.915 108.912 351.524 107.531 351.524V351.528Z" fill="#E3FFD2"/>
<path d="M71.7506 334.077C71.6189 334.077 71.4797 334.058 71.3367 334.021C70.5353 333.806 69.6549 333.005 69.0378 331.924C68.0935 330.276 68.0709 328.568 68.9814 328.033C69.2673 327.868 69.6173 327.834 69.9935 327.935C70.7949 328.15 71.6753 328.951 72.2924 330.032C73.2367 331.684 73.2631 333.392 72.3488 333.923C72.172 334.024 71.9688 334.077 71.7506 334.077ZM69.5796 328.364C69.4479 328.364 69.3275 328.394 69.226 328.455C68.5713 328.839 68.6766 330.318 69.4592 331.687C70.0048 332.643 70.7911 333.377 71.4646 333.554C71.7205 333.622 71.9349 333.607 72.108 333.505C72.7627 333.121 72.6573 331.642 71.8747 330.272C71.3292 329.316 70.5428 328.583 69.8731 328.406C69.7715 328.379 69.6737 328.364 69.5834 328.364H69.5796Z" fill="#F47C53"/>
<path d="M99.875 281.25C102.321 281.179 104.175 280.927 105.583 279.271L109.936 274.149L111.204 272.658L118.657 263.89L114.744 274.145L112.393 280.298L111.648 282.247C111.144 283.568 111.809 284.186 112.28 285.732C112.472 286.357 113.755 290.215 110.41 290.241C106.241 290.271 100.97 285.424 99.811 281.239C99.8336 281.243 99.8524 281.25 99.875 281.25Z" fill="#FFAD97"/>
<path d="M108.724 270.856C108.724 270.856 100.518 262.968 105.251 256.31C109.985 249.653 111.166 266.998 111.166 266.998L109.842 271.006L108.72 270.859L108.724 270.856Z" fill="#002B34"/>
<path d="M109.977 273.972C109.962 274.032 109.947 274.088 109.936 274.149C109.176 277.607 112.363 280.309 112.363 280.309L112.389 280.298L114.74 274.145C113.743 273.396 112.272 272.493 111.204 272.658C110.643 272.745 110.195 273.125 109.977 273.972Z" fill="#002B34"/>
<path d="M127.349 269.685C129.2 263.521 126.596 257.266 121.532 255.715C116.471 254.165 110.865 257.906 109.014 264.07C107.163 270.235 109.767 276.489 114.831 278.04C119.891 279.591 125.497 275.85 127.349 269.685Z" fill="#FFAD97"/>
<path d="M110.752 263.182C110.752 263.182 113.367 265.083 115.557 263.476C117.747 261.869 119.297 260.344 124.199 262.813C129.102 265.282 134.471 264.176 135.464 261.394C136.454 258.613 134.121 256.487 131.039 256.622C127.958 256.762 131.69 255.072 129.549 252.148C127.405 249.224 121.972 252.234 119.278 250.789C116.584 249.34 106.986 248.083 105.259 256.31L110.756 263.182H110.752Z" fill="#002B34"/>
<path d="M108.702 264.83C109.33 265.801 110.542 266.133 111.399 265.561C112.261 264.992 112.445 263.743 111.817 262.768C111.185 261.797 109.977 261.47 109.119 262.038C108.258 262.606 108.073 263.856 108.702 264.83Z" fill="#FFAD97"/>
<path d="M130.046 260.435C127.984 260.435 125.189 257.921 125.061 257.804L125.302 257.537C125.336 257.567 128.598 260.502 130.483 260.025C131.209 259.84 131.619 259.498 131.551 259.129C131.491 258.779 130.972 258.444 130.246 258.519C128.65 258.681 127.785 258.139 127.747 258.116L127.943 257.815C127.943 257.815 128.748 258.312 130.212 258.162C131.194 258.064 131.818 258.553 131.909 259.065C131.988 259.513 131.679 260.092 130.573 260.371C130.404 260.412 130.227 260.435 130.046 260.435Z" fill="white"/>
<path d="M121.577 253.548C120.896 253.548 120.192 253.446 119.522 253.183C118.668 252.848 117.927 252.456 117.209 252.076C115.816 251.342 114.616 250.706 113.311 250.958L113.243 250.605C114.673 250.326 115.929 250.989 117.378 251.756C118.085 252.133 118.819 252.52 119.654 252.844C122.149 253.822 125.065 252.411 125.249 252.257L125.512 252.501C125.358 252.682 123.567 253.544 121.577 253.544V253.548Z" fill="white"/>
<path d="M107.742 255.885C107.689 255.885 107.641 255.877 107.595 255.858C107.475 255.813 107.291 255.67 107.407 255.234L107.434 255.177C107.633 254.891 108.675 253.476 109.394 253.928C109.484 253.984 109.68 254.161 109.488 254.545C109.251 255.023 108.295 255.885 107.742 255.885ZM107.746 255.358C107.712 255.493 107.735 255.535 107.735 255.535C107.829 255.565 108.348 255.32 108.841 254.812C109.191 254.451 109.221 254.263 109.209 254.236C108.893 254.037 108.16 254.778 107.75 255.358H107.746Z" fill="white"/>
<path d="M120.023 267.183C120.079 267.175 120.136 267.141 120.166 267.085C120.219 266.991 120.185 266.87 120.091 266.817C120.034 266.787 118.823 265.944 117.528 267.058C117.446 267.13 117.434 267.25 117.502 267.333C117.57 267.416 117.679 267.408 117.777 267.359C118.736 266.874 119.861 267.134 119.906 267.156C119.944 267.179 119.985 267.183 120.027 267.179L120.023 267.183Z" fill="#060633"/>
<path d="M118.228 269.124C118.153 269.587 118.364 270.005 118.695 270.058C119.026 270.11 119.357 269.779 119.428 269.32C119.5 268.857 119.293 268.44 118.958 268.387C118.627 268.334 118.3 268.665 118.224 269.128L118.228 269.124Z" fill="#060633"/>
<path d="M126.807 269.644C126.852 269.655 126.901 269.644 126.942 269.599C127.014 269.527 127.029 269.407 126.984 269.324C126.953 269.279 126.389 268.097 125.087 268.707C125.004 268.744 124.952 268.853 124.971 268.955C124.989 269.057 125.068 269.087 125.155 269.072C126.002 268.932 126.709 269.542 126.731 269.584C126.75 269.617 126.78 269.636 126.81 269.644H126.807Z" fill="#060633"/>
<path d="M124.372 270.739C124.131 271.138 124.165 271.605 124.455 271.781C124.741 271.958 125.17 271.781 125.414 271.379C125.655 270.98 125.621 270.513 125.332 270.336C125.046 270.159 124.617 270.336 124.376 270.739H124.372Z" fill="#060633"/>
<path d="M118.815 275.65C117.649 275.65 115.884 275.308 114.838 273.456C114.801 273.392 114.823 273.306 114.891 273.272C114.955 273.234 115.038 273.257 115.075 273.324C116.633 276.076 119.891 275.274 119.921 275.266C119.997 275.248 120.068 275.293 120.087 275.364C120.106 275.436 120.06 275.511 119.989 275.53C119.978 275.53 119.496 275.65 118.815 275.65Z" fill="#002B34"/>
<path d="M114.564 273.934C114.564 273.934 114.534 273.934 114.522 273.927C114.451 273.904 114.413 273.825 114.436 273.753C114.549 273.415 114.85 273.102 115.331 272.824C115.395 272.782 115.489 272.79 115.531 272.854C115.572 272.918 115.568 272.993 115.504 273.035C115.497 273.038 115.485 273.046 115.463 273.057C114.94 273.358 114.756 273.648 114.692 273.836C114.673 273.893 114.62 273.93 114.564 273.93V273.934Z" fill="#002B34"/>
<path d="M111.2 296.014C100.123 295.694 96.1162 286.079 96.0786 285.981L96.6392 285.755C96.6768 285.849 100.545 295.107 111.219 295.412L111.2 296.014Z" fill="#002B34"/>
<path d="M106.106 301.196C106.049 301.159 100.349 297.516 99.6116 290.964L100.21 290.896C100.917 297.162 106.369 300.651 106.425 300.684L106.106 301.196Z" fill="#002B34"/>
<path d="M129.967 302.841L129.395 303.029L131.593 309.711L132.165 309.523L129.967 302.841Z" fill="#CC6E58"/>
<path d="M125.463 277.344C124.764 277.344 124.131 277.08 123.62 276.576C121.983 274.954 122.058 271.194 123.793 268.195C124.858 266.347 126.355 265.131 127.796 264.94C128.654 264.823 129.429 265.083 130.035 265.681C131.671 267.303 131.596 271.063 129.862 274.066C128.797 275.914 127.299 277.129 125.858 277.321C125.727 277.34 125.595 277.348 125.463 277.348V277.344ZM128.184 265.312C128.075 265.312 127.962 265.32 127.849 265.335C126.532 265.512 125.147 266.656 124.143 268.394C122.495 271.243 122.389 274.785 123.906 276.286C124.417 276.794 125.076 277.013 125.806 276.915C127.123 276.738 128.507 275.594 129.512 273.859C131.16 271.01 131.265 267.469 129.749 265.967C129.316 265.538 128.778 265.316 128.184 265.316V265.312Z" fill="white"/>
<g opacity="0.3">
<path d="M114.037 263.784C112.633 266.769 113.021 270.396 114.902 271.894C116.783 273.388 119.447 272.18 120.847 269.196C122.25 266.212 121.863 262.584 119.981 261.086C118.1 259.592 115.436 260.8 114.037 263.784Z" fill="white"/>
</g>
<g opacity="0.3">
<path d="M123.65 268.432C122.243 271.431 122.431 275.067 124.075 276.557C125.719 278.047 128.191 276.824 129.598 273.825C131.006 270.825 130.817 267.19 129.173 265.7C127.529 264.209 125.057 265.433 123.65 268.432Z" fill="white"/>
</g>
<path d="M117.009 272.692C116.275 272.692 115.579 272.448 114.966 271.97C112.889 270.348 112.43 266.437 113.947 263.25C114.831 261.391 116.2 260.122 117.709 259.769C118.744 259.524 119.733 259.739 120.568 260.393C122.645 262.015 123.104 265.926 121.588 269.113C120.704 270.972 119.334 272.241 117.826 272.598C117.547 272.662 117.276 272.696 117.009 272.696V272.692ZM118.522 260.077C118.285 260.077 118.044 260.107 117.803 260.164C116.434 260.487 115.132 261.707 114.311 263.427C112.874 266.449 113.281 270.141 115.214 271.653C115.952 272.229 116.821 272.417 117.735 272.203C119.105 271.879 120.407 270.66 121.227 268.94C122.664 265.918 122.258 262.226 120.324 260.717C119.786 260.296 119.173 260.081 118.525 260.081L118.522 260.077Z" fill="white"/>
<path d="M123.891 269.708C123.778 269.708 123.665 269.659 123.59 269.561C123.552 269.516 122.766 268.541 121.061 268.5C120.854 268.496 120.689 268.323 120.692 268.112C120.696 267.905 120.869 267.747 121.08 267.743C123.168 267.796 124.146 269.045 124.188 269.098C124.316 269.264 124.282 269.501 124.116 269.629C124.049 269.681 123.966 269.708 123.887 269.708H123.891Z" fill="white"/>
<path d="M291.888 291.058L258.872 292.209C256.852 292.281 255.178 290.662 255.178 288.642V254.342C255.178 252.325 256.848 250.706 258.869 250.774L291.884 251.877C293.811 251.941 295.334 253.521 295.334 255.444V287.49C295.334 289.413 293.811 290.99 291.888 291.058Z" fill="#E3FFD2"/>
<path d="M265.171 261.082C265.171 259.05 266.826 257.597 268.847 257.405C271.943 257.112 272.714 259.509 272.714 261.537C272.714 263.566 270.946 264.906 268.316 264.906C266.288 264.906 265.167 263.111 265.167 261.078L265.171 261.082Z" fill="#015700"/>
<path d="M262.105 274.943L258.97 281.826C258.034 283.881 259.411 286.286 261.514 286.286H288.991C290.932 286.286 292.302 284.212 291.681 282.21L285.477 262.158C284.675 259.565 281.395 259.302 280.255 261.741L273.708 275.722C272.869 277.517 270.698 277.972 269.306 276.644L266.514 273.987C265.111 272.651 262.925 273.121 262.097 274.939L262.105 274.943Z" fill="#015700"/>
<path d="M418.099 304.497L374.071 306.032C371.377 306.126 369.142 303.97 369.142 301.272V255.527C369.142 252.836 371.373 250.676 374.064 250.767L418.092 252.238C420.658 252.325 422.693 254.428 422.693 256.999V299.736C422.693 302.303 420.662 304.406 418.099 304.497Z" fill="#E3FFD2"/>
<path d="M381.743 265.391L380.843 290.075C380.712 293.684 384.557 296.059 387.725 294.328L411.075 281.57C413.159 280.434 413.298 277.491 411.331 276.162L389.55 261.425C386.295 259.223 381.886 261.462 381.743 265.391Z" fill="#FF4929"/>
</svg>
